STARTFONT 2.1
COMMENT
COMMENT Converted from OpenType font "ChivoMono-Regular.ttf" by "otf2bdf 3.0".
COMMENT
FONT -FreeType-chivo mono cp1252-Medium-R-Normal--48-350-100-100-P-216-ISO10646-1
SIZE 35 100 100
FONTBOUNDINGBOX 29 56 0 -10
STARTPROPERTIES 19
FOUNDRY "FreeType"
FAMILY_NAME "chivo mono cp1252"
WEIGHT_NAME "Medium"
SLANT "R"
SETWIDTH_NAME "Normal"
ADD_STYLE_NAME ""
PIXEL_SIZE 48
POINT_SIZE 350
RESOLUTION_X 100
RESOLUTION_Y 100
SPACING "P"
AVERAGE_WIDTH 216
CHARSET_REGISTRY "ISO10646"
CHARSET_ENCODING "1"
FONT_ASCENT 46
FONT_DESCENT 12
COPYRIGHT "Copyright 2018 The Chivo Project Authors (https://github.com/Omnibus-Type/Chivo)"
_OTF_FONTFILE "ChivoMono-Regular.ttf"
_OTF_PSNAME "ChivoMono-Regular"
ENDPROPERTIES
CHARS 219
STARTCHAR 000D
ENCODING 13
SWIDTH 596 0
DWIDTH 29 0
BBX 0 0 0 0
BITMAP
ENDCHAR
STARTCHAR 0020
ENCODING 32
SWIDTH 596 0
DWIDTH 29 0
BBX 0 0 0 0
BITMAP
ENDCHAR
STARTCHAR 0021
ENCODING 33
SWIDTH 596 0
DWIDTH 29 0
BBX 7 33 11 0
BITMAP
7E
7E
7C
7C
7C
7C
7C
7C
7C
7C
7C
7C
7C
7C
7C
7C
3C
3C
3C
3C
38
38
38
38
00
00
00
FE
FE
FE
FE
FE
FE
ENDCHAR
STARTCHAR 0022
ENCODING 34
SWIDTH 596 0
DWIDTH 29 0
BBX 11 13 9 20
BITMAP
F1E0
F1E0
F1E0
F1E0
F1E0
F1E0
F1E0
F1E0
F1E0
F0E0
60E0
60C0
60C0
ENDCHAR
STARTCHAR 0023
ENCODING 35
SWIDTH 596 0
DWIDTH 29 0
BBX 29 34 0 0
BITMAP
001E03C0
001E03C0
001E03C0
001C0380
003C0780
003C0780
003C0780
003C0700
00780F00
00780F00
3FFFFFF8
3FFFFFF8
3FFFFFF8
3FFFFFF8
00F01E00
00F01E00
00E01C00
01E03C00
01E03C00
01E03C00
01E03C00
01C03800
FFFFFFE0
FFFFFFE0
FFFFFFE0
03807000
0780F000
0780F000
0780F000
0780F000
0700E000
0F01E000
0F01E000
0F01E000
ENDCHAR
STARTCHAR 0024
ENCODING 36
SWIDTH 596 0
DWIDTH 29 0
BBX 25 40 2 -3
BITMAP
001C0000
001C0000
001C0000
001C0000
003E0000
03FFE000
0FFFF800
1FFFFC00
3F80FE00
3E003E00
7C001F00
7C001F00
7C000F00
7C000000
7E000000
7F000000
3FE00000
1FFE0000
0FFFC000
07FFF800
01FFFC00
001FFE00
0001FF00
00003F00
00001F80
00000F80
F8000F80
F8000F80
F8000F80
78001F80
7C001F00
7F007F00
3FFFFE00
1FFFFC00
07FFF000
00FFC000
001C0000
001C0000
001C0000
001C0000
ENDCHAR
STARTCHAR 0025
ENCODING 37
SWIDTH 596 0
DWIDTH 29 0
BBX 29 33 0 0
BITMAP
1F800078
7FE000F0
79E000E0
F0F001C0
E0700380
E0700780
E0700700
E0700E00
E0701C00
E0703800
E0703800
E0707000
F070E000
70F00000
7FE00000
3FC00000
0F000FC0
00001FE0
00003FF0
001C7878
00387038
00707038
00E07038
01E07038
01C07038
03807038
07007038
0F007038
0E007038
1C007878
3C003FF0
78001FE0
F0000FC0
ENDCHAR
STARTCHAR 0026
ENCODING 38
SWIDTH 596 0
DWIDTH 29 0
BBX 27 34 2 0
BITMAP
007E0000
03FE0000
07FE0000
1FFE0000
1FC10000
3F000000
3E000000
7C000000
7C001E00
7C001E00
7C001E00
3C001E00
3E001E00
3F003E00
1FC03E00
07FFFFE0
03FFFFE0
07FFFFE0
1FFFFFE0
3F803E00
3E003E00
7C003E00
7C003E00
7C003E00
F8003E00
F8003E00
7C003E00
7C003E00
7E003E00
3F003E00
3FFFFE00
1FFFFE00
07FFFE00
01FFFE00
ENDCHAR
STARTCHAR 0027
ENCODING 39
SWIDTH 596 0
DWIDTH 29 0
BBX 5 13 12 20
BITMAP
F8
F8
F8
F8
F8
F8
F8
78
70
70
70
70
70
ENDCHAR
STARTCHAR 0028
ENCODING 40
SWIDTH 596 0
DWIDTH 29 0
BBX 11 41 10 -8
BITMAP
01E0
01C0
0380
0780
0700
0F00
0E00
1E00
1E00
3C00
3C00
3C00
7800
7800
7800
7800
7800
F800
F800
F800
F800
F800
F800
7800
7800
7800
7800
7800
7C00
3C00
3C00
1E00
1E00
1E00
0F00
0F00
0700
0380
03C0
01C0
00E0
ENDCHAR
STARTCHAR 0029
ENCODING 41
SWIDTH 596 0
DWIDTH 29 0
BBX 11 41 8 -8
BITMAP
F000
7800
3800
3C00
1E00
1E00
0F00
0F00
0780
0780
0780
07C0
03C0
03C0
03C0
03C0
03E0
03E0
01E0
01E0
01E0
01E0
03E0
03E0
03E0
03C0
03C0
03C0
07C0
0780
0780
0780
0F00
0F00
0E00
1E00
1C00
3800
3800
7000
E000
ENDCHAR
STARTCHAR 002A
ENCODING 42
SWIDTH 596 0
DWIDTH 29 0
BBX 20 19 5 14
BITMAP
00F000
00E000
00E000
00E000
00E000
E0E0E0
F8E3E0
FFEFE0
7FFFF0
07FE00
01F000
03F800
07BC00
0F1E00
0F1E00
1E0F00
3E0F80
0C0600
040400
ENDCHAR
STARTCHAR 002B
ENCODING 43
SWIDTH 596 0
DWIDTH 29 0
BBX 25 25 2 0
BITMAP
001E0000
001E0000
001E0000
001E0000
001E0000
001E0000
001E0000
001E0000
001E0000
001E0000
001E0000
FFFFFF80
FFFFFF80
FFFFFF80
FFFFFF80
001E0000
001E0000
001E0000
001E0000
001E0000
001E0000
001E0000
001E0000
001E0000
001E0000
ENDCHAR
STARTCHAR 002C
ENCODING 44
SWIDTH 596 0
DWIDTH 29 0
BBX 5 14 12 -7
BITMAP
F8
F8
F8
F8
F8
F8
F8
38
38
38
38
70
F0
E0
ENDCHAR
STARTCHAR 002D
ENCODING 45
SWIDTH 596 0
DWIDTH 29 0
BBX 13 4 8 11
BITMAP
FFF8
FFF8
FFF8
FFF8
ENDCHAR
STARTCHAR 002E
ENCODING 46
SWIDTH 596 0
DWIDTH 29 0
BBX 7 6 11 0
BITMAP
FE
FE
FE
FE
FE
FE
ENDCHAR
STARTCHAR 002F
ENCODING 47
SWIDTH 596 0
DWIDTH 29 0
BBX 27 41 1 -8
BITMAP
000001E0
000003C0
000003C0
00000780
00000780
00000F00
00001F00
00001E00
00003C00
00003C00
00007800
00007800
0000F000
0001F000
0001E000
0003C000
0003C000
00078000
00078000
000F0000
000F0000
001E0000
003E0000
003C0000
00780000
00780000
00F00000
00F00000
01E00000
03E00000
03C00000
07800000
07800000
0F000000
0F000000
1E000000
1E000000
3C000000
7C000000
78000000
F0000000
ENDCHAR
STARTCHAR 0030
ENCODING 48
SWIDTH 596 0
DWIDTH 29 0
BBX 23 34 3 0
BITMAP
00FE00
03FFC0
0FFFE0
1FFFF0
3F83F8
3E00FC
7C007C
7C007E
F8003E
F8003E
F8003E
F8003E
F8003E
F8003E
F8003E
F8003E
F8003E
F8003E
F8003E
F8003E
F8003E
F8003E
F8003E
F8003E
F8003E
F8003E
F8003E
7C007C
7E00FC
3F01F8
3FEFF8
1FFFF0
07FFE0
03FF80
ENDCHAR
STARTCHAR 0031
ENCODING 49
SWIDTH 596 0
DWIDTH 29 0
BBX 22 34 4 0
BITMAP
001C00
00FC00
07FC00
FFFC00
FFFC00
FFFC00
007C00
007C00
007C00
007C00
007C00
007C00
007C00
007C00
007C00
007C00
007C00
007C00
007C00
007C00
007C00
007C00
007C00
007C00
007C00
007C00
007C00
007C00
007C00
007C00
FFFFFC
FFFFFC
FFFFFC
FFFFFC
ENDCHAR
STARTCHAR 0032
ENCODING 50
SWIDTH 596 0
DWIDTH 29 0
BBX 23 34 3 0
BITMAP
007E00
03FFC0
0FFFF0
1FFFF8
3FC7F8
3F00FC
7C007C
7C003E
F8003E
F8003E
F8003E
F8003E
00003E
00007E
00007C
0000FC
0001F8
0003F0
000FF0
001FC0
007F80
00FE00
03FC00
07F000
1FE000
3F8000
3F0000
7E0000
7C0000
FC0000
FFFFFE
FFFFFE
FFFFFE
FFFFFE
ENDCHAR
STARTCHAR 0033
ENCODING 51
SWIDTH 596 0
DWIDTH 29 0
BBX 24 34 2 0
BITMAP
007F00
03FFE0
0FFFF0
1FFFF8
3FC3FC
3E007E
7C003E
7C003E
7C003E
7C001E
00003E
00003E
00003E
00007C
0001F8
00FFF0
00FFC0
00FFF0
00FFF8
0000FC
00003E
00003F
00001F
00001F
F8001F
F8001F
F8001F
78001F
7C003F
7E007E
3FFFFC
1FFFF8
0FFFF0
03FFC0
ENDCHAR
STARTCHAR 0034
ENCODING 52
SWIDTH 596 0
DWIDTH 29 0
BBX 25 34 2 0
BITMAP
003E0000
003C0000
007C0000
007C0000
00F80000
00F83800
00F03800
01F03800
01F07800
03E07800
03E0F800
07C0F800
07C0F800
0F80F800
0F80F800
1F00F800
1E00F800
3E00F800
3C00F800
7800F800
7800F800
F000F800
FFFFFF80
FFFFFF80
FFFFFF80
FFFFFF80
0000F800
0000F800
0000F800
0000F800
0000F800
0000F800
0000F800
0000F800
ENDCHAR
STARTCHAR 0035
ENCODING 53
SWIDTH 596 0
DWIDTH 29 0
BBX 23 33 3 0
BITMAP
1FFFFC
3FFFFC
3FFFFC
3FFFFC
3E0000
3E0000
3E0000
3C0000
3C0000
3C0000
3C0000
3C1E00
3CFFC0
3FFFE0
7FFFF8
7F83F8
7E00FC
7C007C
04007E
00003E
00003E
00003E
F8003E
F8003E
F8003E
F8003E
7C007E
7E00FC
3F01FC
3FFFF8
1FFFF0
07FFE0
03FF80
ENDCHAR
STARTCHAR 0036
ENCODING 54
SWIDTH 596 0
DWIDTH 29 0
BBX 24 34 3 0
BITMAP
007E00
03FFC0
07FFE0
1FFFF0
1FC3F8
3F00FC
7E007C
7C003E
7C003E
7C003E
78003E
F80000
F80000
F83F80
F8FFE0
F9FFF0
FBF7F8
FF00FC
FE007E
FC003E
FC003E
FC001F
FC001F
F8001F
78001F
7C001F
7C003E
7C003E
3E007E
3F00FC
1FE7F8
0FFFF0
07FFE0
01FF80
ENDCHAR
STARTCHAR 0037
ENCODING 55
SWIDTH 596 0
DWIDTH 29 0
BBX 24 33 3 0
BITMAP
FFFFFF
FFFFFF
FFFFFE
FFFFFE
00007C
000078
0000F0
0001F0
0003E0
0003C0
0007C0
000F80
000F80
001F00
001E00
003E00
003E00
007C00
007C00
00F800
00F800
00F800
01F000
01F000
01F000
03F000
03F000
03E000
03E000
03E000
03E000
03E000
03E000
ENDCHAR
STARTCHAR 0038
ENCODING 56
SWIDTH 596 0
DWIDTH 29 0
BBX 23 34 3 0
BITMAP
00FE00
03FFC0
0FFFE0
1FFFF0
3F01F8
3E00F8
7C007C
7C007C
7C003C
7C003C
7C003C
7C007C
7C007C
3E00F8
1F01F8
0FFFF0
07FFC0
0FFFE0
1FFFF0
3F00F8
7C007C
FC003E
F8003E
F8003E
F8003E
F8003E
F8003E
F8003E
FC007E
7E00FC
3F83FC
3FFFF8
0FFFF0
03FFC0
ENDCHAR
STARTCHAR 0039
ENCODING 57
SWIDTH 596 0
DWIDTH 29 0
BBX 24 34 2 0
BITMAP
007E00
03FFC0
07FFF0
1FFFF8
1F81FC
3F00FC
7E007E
7C003E
7C003E
7C001F
F8001F
F8001F
78001F
7C003F
7C003F
7E007F
3F007F
3F81FF
1FFFDF
0FFF9F
03FF1F
00301F
00001F
00001F
7C001F
7C001E
7C003E
3E003E
3E007E
3F00FC
1FFFF8
0FFFF0
07FFE0
01FF80
ENDCHAR
STARTCHAR 003A
ENCODING 58
SWIDTH 596 0
DWIDTH 29 0
BBX 7 25 11 0
BITMAP
FE
FE
FE
FE
FE
FE
00
00
00
00
00
00
00
00
00
00
00
00
00
FE
FE
FE
FE
FE
FE
ENDCHAR
STARTCHAR 003B
ENCODING 59
SWIDTH 596 0
DWIDTH 29 0
BBX 7 32 11 -7
BITMAP
FE
FE
FE
FE
FE
FE
00
00
00
00
00
00
00
00
00
00
00
00
7C
7C
7C
7C
7C
7C
7C
1C
1C
1C
1C
38
78
70
ENDCHAR
STARTCHAR 003C
ENCODING 60
SWIDTH 596 0
DWIDTH 29 0
BBX 24 24 2 0
BITMAP
000003
00001F
00007F
0003FF
000FFE
007FF0
03FF80
0FFE00
7FF000
FF8000
FE0000
F00000
FC0000
FF8000
FFE000
1FFC00
03FF80
00FFE0
001FFC
0007FF
0000FF
00003F
000007
000001
ENDCHAR
STARTCHAR 003D
ENCODING 61
SWIDTH 596 0
DWIDTH 29 0
BBX 25 14 2 5
BITMAP
FFFFFF80
FFFFFF80
FFFFFF80
FFFFFF80
00000000
00000000
00000000
00000000
00000000
00000000
FFFFFF80
FFFFFF80
FFFFFF80
FFFFFF80
ENDCHAR
STARTCHAR 003E
ENCODING 62
SWIDTH 596 0
DWIDTH 29 0
BBX 24 25 3 0
BITMAP
800000
C00000
F80000
FE0000
FFC000
3FF800
0FFE00
01FFC0
007FF0
000FFE
0001FF
00007F
00000F
00003F
0001FF
0007FF
003FF8
00FFC0
07FF00
3FF800
FFE000
FF0000
FC0000
E00000
800000
ENDCHAR
STARTCHAR 003F
ENCODING 63
SWIDTH 596 0
DWIDTH 29 0
BBX 21 34 4 0
BITMAP
00FC00
07FF80
0FFFC0
1FFFE0
3F07F0
7C01F0
7C01F8
F800F8
F800F8
F800F8
F800F8
F800F8
0001F8
0001F0
0003F0
0007E0
000FC0
001F80
003F00
007E00
007C00
007C00
007800
007800
007800
000000
000000
000000
00FC00
00FC00
00FC00
00FC00
00FC00
00FC00
ENDCHAR
STARTCHAR 0040
ENCODING 64
SWIDTH 596 0
DWIDTH 29 0
BBX 29 42 0 -8
BITMAP
000FE000
007FFC00
01FFFE00
03E00F00
07800780
0F0003C0
1E0001E0
1C0000E0
380000E0
381FE070
707FF070
70FFF870
70F8FC38
71F03C38
61E03C38
E1E03C38
E1E03C38
E0003C38
E0003C38
E001FC38
E01FFC38
E07FFC38
E0FE3C38
E1F83C38
E1F03C38
E1E03C38
E3E03C38
E3E03C38
63E07C30
73E07C70
71F0FE70
71FFDFE0
70FF8FE0
387F0FC0
38000000
1C000000
1E000000
0F000000
07C00C00
03FFFC00
00FFFC00
001F8000
ENDCHAR
STARTCHAR 0041
ENCODING 65
SWIDTH 596 0
DWIDTH 29 0
BBX 28 33 1 0
BITMAP
003F8000
003F8000
003FC000
007FC000
007FC000
007BE000
00FBE000
00F3E000
00F1F000
01F1F000
01F1F000
01E0F800
03E0F800
03E0F800
03C07800
07C07C00
07C07C00
07807C00
0F803E00
0F803E00
0F803E00
1F001F00
1FFFFF00
1FFFFF00
3FFFFF80
3FFFFF80
3E000F80
7C0007C0
7C0007C0
7C0007C0
F80003E0
F80003E0
F80003F0
ENDCHAR
STARTCHAR 0042
ENCODING 66
SWIDTH 596 0
DWIDTH 29 0
BBX 23 33 4 0
BITMAP
FFFFC0
FFFFE0
FFFFF0
FFFFF8
F001FC
F000FC
F0007C
F0007C
F0007C
F0007C
F0007C
F000F8
F000F8
F003F0
FFFFE0
FFFF00
FFFFC0
FFFFF0
F001F8
F000FC
F0007C
F0003E
F0003E
F0003E
F0003E
F0003E
F0007E
F000FC
F001FC
FFFFF8
FFFFF0
FFFFE0
FFFF80
ENDCHAR
STARTCHAR 0043
ENCODING 67
SWIDTH 596 0
DWIDTH 29 0
BBX 25 34 2 0
BITMAP
007F0000
03FFE000
07FFF800
1FFFFC00
1FE1FE00
3F007E00
7E003F00
7C001F00
7C001F00
FC000F80
F8000F80
F8000F80
F8000F80
F8000000
F8000000
F8000000
F8000000
F8000000
F8000000
F8000000
F8000000
F8000F80
F8000F80
F8000F80
F8000F80
FC000F80
7C001F00
7E001F00
7E003F00
3F807E00
1FFFFC00
0FFFF800
07FFF000
01FFC000
ENDCHAR
STARTCHAR 0044
ENCODING 68
SWIDTH 596 0
DWIDTH 29 0
BBX 24 33 4 0
BITMAP
FFFF80
FFFFE0
FFFFF0
FFFFF8
F801FC
F8007E
F8007E
F8003F
F8001F
F8001F
F8001F
F8001F
F8001F
F8001F
F8001F
F8001F
F8001F
F8001F
F8001F
F8001F
F8001F
F8001F
F8001F
F8001F
F8003F
F8003E
F8007E
F800FC
F803FC
FFFFF8
FFFFF0
FFFFC0
FFFE00
ENDCHAR
STARTCHAR 0045
ENCODING 69
SWIDTH 596 0
DWIDTH 29 0
BBX 22 33 4 0
BITMAP
FFFFFC
FFFFFC
FFFFFC
FFFFF8
F80000
F80000
F80000
F80000
F80000
F80000
F80000
F80000
F80000
F80000
FFFFF0
FFFFF0
FFFFF0
FFFFF0
F80000
F80000
F80000
F80000
F80000
F80000
F80000
F80000
F80000
F80000
F80000
FFFFFC
FFFFFC
FFFFFC
FFFFFC
ENDCHAR
STARTCHAR 0046
ENCODING 70
SWIDTH 596 0
DWIDTH 29 0
BBX 21 33 4 0
BITMAP
FFFFF8
FFFFF8
FFFFF8
FFFFF8
F80000
F80000
F80000
F80000
F80000
F80000
F80000
F80000
F80000
F80000
FFFFE0
FFFFE0
FFFFE0
FFFFE0
F80000
F80000
F80000
F80000
F80000
F80000
F80000
F80000
F80000
F80000
F80000
F80000
F80000
F80000
F80000
ENDCHAR
STARTCHAR 0047
ENCODING 71
SWIDTH 596 0
DWIDTH 29 0
BBX 25 34 2 0
BITMAP
007F0000
03FFE000
0FFFF800
1FFFFC00
3FC1FE00
3F007E00
7E003F00
7C001F00
7C001F80
FC000F80
F8000F80
F8000F80
F8000000
F8000000
F8000000
F8000000
F80FFF80
F80FFF80
F80FFF80
F80FFF80
F8000F80
F8000F80
F8000F80
F8000F80
F8000F80
FC000F80
7C001F80
7E001F80
7E003F80
3F807F80
1FFFFF80
0FFFF380
07FFE380
01FF8380
ENDCHAR
STARTCHAR 0048
ENCODING 72
SWIDTH 596 0
DWIDTH 29 0
BBX 22 33 4 0
BITMAP
F8007C
F8007C
F8007C
F8007C
F8007C
F8007C
F8007C
F8007C
F8007C
F8007C
F8007C
F8007C
F8007C
F8007C
FFFFFC
FFFFFC
FFFFFC
FFFFFC
F8007C
F8007C
F8007C
F8007C
F8007C
F8007C
F8007C
F8007C
F8007C
F8007C
F8007C
F8007C
F8007C
F8007C
F8007C
ENDCHAR
STARTCHAR 0049
ENCODING 73
SWIDTH 596 0
DWIDTH 29 0
BBX 19 33 5 0
BITMAP
FFFFE0
FFFFE0
FFFFE0
FFFFE0
01F000
01F000
01F000
01F000
01F000
01F000
01F000
01F000
01F000
01F000
01F000
01F000
01F000
01F000
01F000
01F000
01F000
01F000
01F000
01F000
01F000
01F000
01F000
01F000
01F000
FFFFE0
FFFFE0
FFFFE0
FFFFE0
ENDCHAR
STARTCHAR 004A
ENCODING 74
SWIDTH 596 0
DWIDTH 29 0
BBX 20 33 5 0
BITMAP
0001F0
0001F0
0001F0
0001F0
0001F0
0001F0
0001F0
0001F0
0001F0
0001F0
0001F0
0001F0
0001F0
0001F0
0001F0
0001F0
0001F0
0001F0
0001F0
0001F0
0001F0
0001F0
0001F0
F001F0
F001F0
F003F0
F803F0
F803E0
FC07E0
7FFFC0
7FFFC0
1FFF80
0FFE00
ENDCHAR
STARTCHAR 004B
ENCODING 75
SWIDTH 596 0
DWIDTH 29 0
BBX 24 33 4 0
BITMAP
F8003F
F8007E
F800FC
F800F8
F801F0
F803F0
F807E0
F807C0
F80FC0
F81F80
F83F00
F87E00
F87E00
F8FC00
F9F800
FBF800
FBFC00
FFFC00
FFFE00
FF3F00
FE3F00
FC1F80
FC0FC0
F80FC0
F807E0
F803F0
F803F0
F801F8
F800FC
F800FC
F8007E
F8003F
F8003F
ENDCHAR
STARTCHAR 004C
ENCODING 76
SWIDTH 596 0
DWIDTH 29 0
BBX 21 33 5 0
BITMAP
F80000
F80000
F80000
F80000
F80000
F80000
F80000
F80000
F80000
F80000
F80000
F80000
F80000
F80000
F80000
F80000
F80000
F80000
F80000
F80000
F80000
F80000
F80000
F80000
F80000
F80000
F80000
F80000
F80000
FFFFF0
FFFFF8
FFFFF8
FFFFF8
ENDCHAR
STARTCHAR 004D
ENCODING 77
SWIDTH 596 0
DWIDTH 29 0
BBX 23 33 3 0
BITMAP
FE00FE
FE00FE
FE00FE
FE00FE
FF00FE
FF01FE
FF01DE
F701DE
F701DE
F781DE
F783DE
F7839E
F7839E
F3839E
F3839E
F3C39E
F3C71E
F3C71E
F3C71E
F1C71E
F1C71E
F1EF1E
F1EE1E
F1EE1E
F0EE1E
F0EE1E
F0FE1E
F0FE1E
F0FC1E
F0FC1E
F07C1E
F07C1E
F07C1E
ENDCHAR
STARTCHAR 004E
ENCODING 78
SWIDTH 596 0
DWIDTH 29 0
BBX 22 33 4 0
BITMAP
F8007C
FC007C
FC007C
FE007C
FE007C
FF007C
FF007C
FF807C
FF807C
F7C07C
F7C07C
F3E07C
F3E07C
F1F07C
F1F07C
F0F87C
F0F87C
F07C7C
F07C7C
F03E7C
F03E7C
F01F7C
F01F7C
F00FFC
F00FFC
F007FC
F007FC
F003FC
F003FC
F001FC
F001FC
F000FC
F000FC
ENDCHAR
STARTCHAR 004F
ENCODING 79
SWIDTH 596 0
DWIDTH 29 0
BBX 25 34 2 0
BITMAP
007F0000
03FFE000
07FFF800
1FFFFC00
1FE3FE00
3F007E00
7E003F00
7C001F00
7C001F80
FC000F80
F8000F80
F8000F80
F8000F80
F8000F80
F8000F80
F8000F80
F8000F80
F8000F80
F8000F80
F8000F80
F8000F80
F8000F80
F8000F80
F8000F80
F8000F80
FC000F80
7C001F00
7E001F00
7E003F00
3F807E00
1FFFFC00
0FFFF800
07FFF000
01FFC000
ENDCHAR
STARTCHAR 0050
ENCODING 80
SWIDTH 596 0
DWIDTH 29 0
BBX 24 33 4 0
BITMAP
FFFFC0
FFFFF0
FFFFF8
FFFFFC
F800FE
F8007E
F8003E
F8003F
F8001F
F8001F
F8001F
F8003F
F8003E
F8007E
F801FC
FFFFFC
FFFFF8
FFFFF0
FFFF80
F80000
F80000
F80000
F80000
F80000
F80000
F80000
F80000
F80000
F80000
F80000
F80000
F80000
F80000
ENDCHAR
STARTCHAR 0051
ENCODING 81
SWIDTH 596 0
DWIDTH 29 0
BBX 26 41 2 -7
BITMAP
007F0000
03FFE000
07FFF800
1FFFFC00
1FE3FE00
3F007E00
7E003F00
7C001F00
7C001F80
FC000F80
F8000F80
F8000F80
F8000F80
F8000F80
F8000F80
F8000F80
F8000F80
F8000F80
F8000F80
F8000F80
F8000F80
F8000F80
F8000F80
F8000F80
F8000F80
FC000F80
7C001F00
7E001F00
7E003F00
3F807E00
1FFFFC00
0FFFF800
07FFF000
01FFC000
001E0000
001F0000
001F8040
000FE3C0
0007FFC0
0003FFC0
0000FE00
ENDCHAR
STARTCHAR 0052
ENCODING 82
SWIDTH 596 0
DWIDTH 29 0
BBX 25 33 4 0
BITMAP
FFFFC000
FFFFF000
FFFFF800
FFFFFC00
F800FE00
F8007E00
F8003E00
F8003E00
F8003E00
F8003E00
F8003E00
F8003E00
F8007E00
F8007C00
F803F800
FFFFF000
FFFFC000
FFFFE000
FFFFF800
F803F800
F800FC00
F800FC00
F8007C00
F8007E00
F8003E00
F8003E00
F8003E00
F8003E00
F8003E00
F8003E00
F8003F00
F8001F80
F8000F80
ENDCHAR
STARTCHAR 0053
ENCODING 83
SWIDTH 596 0
DWIDTH 29 0
BBX 25 34 2 0
BITMAP
007F0000
03FFF000
0FFFF800
1FFFFC00
3FC1FE00
7E003F00
7C001F00
7C001F00
7C000F00
7C000F00
7C000000
7E000000
7F000000
3FE00000
3FFC0000
1FFFC000
07FFF000
01FFFC00
003FFE00
0003FF00
00007F80
00003F80
00001F80
00000F80
F8000F80
F8000F80
F8000F80
F8000F80
7C001F80
7F007F00
3FFFFE00
1FFFFE00
0FFFF800
03FFE000
ENDCHAR
STARTCHAR 0054
ENCODING 84
SWIDTH 596 0
DWIDTH 29 0
BBX 25 33 2 0
BITMAP
FFFFFF80
FFFFFF80
FFFFFF80
FFFFFF80
003E0000
003E0000
003E0000
003E0000
003E0000
003E0000
003E0000
003E0000
003E0000
003E0000
003E0000
003E0000
003E0000
003E0000
003E0000
003E0000
003E0000
003E0000
003E0000
003E0000
003E0000
003E0000
003E0000
003E0000
003E0000
003E0000
003E0000
003E0000
003E0000
ENDCHAR
STARTCHAR 0055
ENCODING 85
SWIDTH 596 0
DWIDTH 29 0
BBX 23 33 3 0
BITMAP
F8003E
F8003E
F8003E
F8003E
F8003E
F8003E
F8003E
F8003E
F8003E
F8003E
F8003E
F8003E
F8003E
F8003E
F8003E
F8003E
F8003E
F8003E
F8003E
F8003E
F8003E
F8003E
F8003E
F8003E
F8003E
FC003E
7C007C
7E00FC
7F01FC
3FFFF8
1FFFF0
0FFFE0
03FF80
ENDCHAR
STARTCHAR 0056
ENCODING 86
SWIDTH 596 0
DWIDTH 29 0
BBX 28 33 1 0
BITMAP
F80003F0
F80003E0
7C0003E0
7C0007C0
7C0007C0
3E0007C0
3E000F80
3E000F80
1F000F80
1F000F00
1F001F00
0F801F00
0F801E00
0F803E00
0F803E00
07C03C00
07C07C00
07C07C00
03E07800
03E0F800
03E0F800
01F0F000
01F0F000
01F1F000
00F9E000
00F9E000
00FBE000
007FC000
007FC000
007FC000
003FC000
003F8000
003F8000
ENDCHAR
STARTCHAR 0057
ENCODING 87
SWIDTH 596 0
DWIDTH 29 0
BBX 29 33 0 0
BITMAP
F8078078
F80F8078
F80F8078
780FC0F8
780FC0F0
7C0FC0F0
7C0FC0F0
7C1FC0F0
7C1FC0F0
3C1DE1F0
3C1DE1F0
3E1DE1E0
3E1DE1E0
3E1DE1E0
3E3CE1E0
3E38E1E0
1E38F3E0
1E38F3C0
1F38F3C0
1F38F3C0
1F7873C0
1F7873C0
0F707FC0
0F707F80
0FF07F80
0FF07F80
0FF07F80
0FF03F80
0FE03F80
07E03F80
07E03F00
07E03F00
07E03F00
ENDCHAR
STARTCHAR 0058
ENCODING 88
SWIDTH 596 0
DWIDTH 29 0
BBX 29 33 0 0
BITMAP
3F0003F0
1F8007E0
1F8007C0
0FC00F80
07C01F80
07E01F00
03F03E00
03F03E00
01F87C00
00FCFC00
00FCF800
007FF000
003FF000
003FE000
001FC000
001FC000
001FC000
003FE000
007FF000
007FF000
00F9F800
00F8FC00
01F0FC00
03F07E00
03E03E00
07C03F00
07C01F80
0F801F80
1F800FC0
1F0007E0
3E0007E0
7E0003F0
FC0001F8
ENDCHAR
STARTCHAR 0059
ENCODING 89
SWIDTH 596 0
DWIDTH 29 0
BBX 27 33 1 0
BITMAP
FC0003E0
7C0007C0
7E0007C0
3F000F80
3F000F80
1F801F00
0F801F00
0FC03E00
07C07E00
07E07C00
03E0FC00
03F0F800
01F1F000
01F9F000
00FBE000
00FFE000
007FC000
007FC000
003F8000
003F8000
001F0000
001F0000
001F0000
001F0000
001F0000
001F0000
001F0000
001F0000
001F0000
001F0000
001F0000
001F0000
001F0000
ENDCHAR
STARTCHAR 005A
ENCODING 90
SWIDTH 596 0
DWIDTH 29 0
BBX 25 33 2 0
BITMAP
7FFFFF80
7FFFFF80
7FFFFF00
7FFFFF00
00007E00
0000FC00
0000FC00
0001F800
0001F000
0003F000
0007E000
0007C000
000FC000
001F8000
001F0000
003F0000
007E0000
007E0000
00FC0000
01F80000
01F80000
03F00000
07E00000
07E00000
0FC00000
1F800000
1F800000
3F000000
3E000000
7FFFFF80
FFFFFF80
FFFFFF80
FFFFFF80
ENDCHAR
STARTCHAR 005B
ENCODING 91
SWIDTH 596 0
DWIDTH 29 0
BBX 10 41 12 -8
BITMAP
FFC0
FFC0
F000
F000
F000
F000
F000
F000
F000
F000
F000
F000
F000
F000
F000
F000
F000
F000
F000
F000
F000
F000
F000
F000
F000
F000
F000
F000
F000
F000
F000
F000
F000
F000
F000
F000
F000
F000
FFC0
FFC0
FFC0
ENDCHAR
STARTCHAR 005C
ENCODING 92
SWIDTH 596 0
DWIDTH 29 0
BBX 27 41 1 -8
BITMAP
F0000000
78000000
78000000
3C000000
1E000000
1E000000
0F000000
0F000000
07800000
07800000
03C00000
03E00000
01E00000
00F00000
00F00000
00780000
00780000
003C0000
003C0000
001E0000
000F0000
000F0000
00078000
00078000
0003C000
0003C000
0001E000
0001F000
0000F000
00007800
00007800
00003C00
00003C00
00001E00
00001E00
00000F00
00000780
00000780
000003C0
000003C0
000001E0
ENDCHAR
STARTCHAR 005D
ENCODING 93
SWIDTH 596 0
DWIDTH 29 0
BBX 9 41 8 -8
BITMAP
FF80
FF80
0780
0780
0780
0780
0780
0780
0780
0780
0780
0780
0780
0780
0780
0780
0780
0780
0780
0780
0780
0780
0780
0780
0780
0780
0780
0780
0780
0780
0780
0780
0780
0780
0780
0780
0780
0780
FF80
FF80
FF80
ENDCHAR
STARTCHAR 005E
ENCODING 94
SWIDTH 596 0
DWIDTH 29 0
BBX 25 25 2 0
BITMAP
003E0000
007F0000
007F0000
007F0000
00FF8000
00F78000
00F7C000
01E3C000
01E3C000
03E1E000
03C1E000
03C1F000
0780F000
0780F000
0F80F800
0F007800
0F007800
1F003C00
1E003C00
1E003E00
3C001E00
3C001E00
7C000F00
78000F00
F8000F80
ENDCHAR
STARTCHAR 005F
ENCODING 95
SWIDTH 596 0
DWIDTH 29 0
BBX 25 3 2 -6
BITMAP
FFFFFF80
FFFFFF80
FFFFFF80
ENDCHAR
STARTCHAR 0060
ENCODING 96
SWIDTH 596 0
DWIDTH 29 0
BBX 9 8 10 29
BITMAP
F800
7800
3C00
3C00
1E00
1E00
0F00
0780
ENDCHAR
STARTCHAR 0061
ENCODING 97
SWIDTH 596 0
DWIDTH 29 0
BBX 24 25 3 0
BITMAP
03FF80
0FFFE0
1FFFF0
3F03F0
7E01F8
7C00F8
7C00F8
7C00F8
0000F8
0000F8
001FF8
03FFF8
1FFFF8
3FF8F8
7E00F8
7C00F8
F800F8
F800F8
F800F8
F801F8
FC03F8
7E07F9
7FFF7F
3FFE7F
1FF83F
ENDCHAR
STARTCHAR 0062
ENCODING 98
SWIDTH 596 0
DWIDTH 29 0
BBX 22 35 4 0
BITMAP
F80000
F80000
F80000
F80000
F80000
F80000
F80000
F80000
F80000
F80000
F8FF80
F9FFC0
FBFFE0
FFC7F0
FF01F8
FE00F8
FC007C
FC007C
F8007C
F8007C
F8003C
F8003C
F8003C
F8003C
F8007C
F8007C
F8007C
FC007C
FC007C
FE00F8
FF01F8
FF83F0
FBFFE0
FBFFC0
F0FF80
ENDCHAR
STARTCHAR 0063
ENCODING 99
SWIDTH 596 0
DWIDTH 29 0
BBX 22 25 3 0
BITMAP
01FF00
07FFC0
0FFFE0
1FC3F0
3F00F8
3E00F8
7C0078
7C007C
F8007C
F8003C
F80000
F80000
F80000
F80000
F80000
F8003C
F8003C
7C007C
7C007C
3E0078
3E00F8
1F83F0
0FFFE0
07FFC0
01FF80
ENDCHAR
STARTCHAR 0064
ENCODING 100
SWIDTH 596 0
DWIDTH 29 0
BBX 22 35 3 0
BITMAP
00007C
00007C
00007C
00007C
00007C
00007C
00007C
00007C
00007C
00007C
03FC7C
0FFE7C
1FFF7C
3F87FC
3E01FC
7C01FC
7C00FC
F800FC
F8007C
F8007C
F8007C
F8007C
F8007C
F8007C
F8007C
F8007C
F8007C
F800FC
F800FC
7C00FC
7E01FC
3F07FC
1FFFFC
0FFF3C
07FC3C
ENDCHAR
STARTCHAR 0065
ENCODING 101
SWIDTH 596 0
DWIDTH 29 0
BBX 23 25 3 0
BITMAP
01FF00
07FFC0
0FFFF0
1F83F0
3F00F8
3E007C
7C007C
7C003C
F8003C
F8003E
FFFFFE
FFFFFE
FFFFFE
F80000
F80000
F80000
F8003E
7C003C
7C003C
7E007C
3E00FC
3F81F8
1FFFF0
0FFFE0
03FF80
ENDCHAR
STARTCHAR 0066
ENCODING 102
SWIDTH 596 0
DWIDTH 29 0
BBX 22 35 4 0
BITMAP
000FFC
003FFC
007FFC
00FF0C
00F800
01F000
01F000
01F000
01F000
01F000
FFFFFC
FFFFFC
FFFFFC
FFFFFC
01F000
01F000
01F000
01F000
01F000
01F000
01F000
01F000
01F000
01F000
01F000
01F000
01F000
01F000
01F000
01F000
01F000
FFFFFC
FFFFFC
FFFFFC
FFFFFC
ENDCHAR
STARTCHAR 0067
ENCODING 103
SWIDTH 596 0
DWIDTH 29 0
BBX 26 38 2 -9
BITMAP
000003C0
00000780
00000780
00000F80
01FFFF00
07FFFC00
0FFFF800
0FC0FC00
1F007C00
1F003E00
1E003E00
1E001E00
1E003E00
1F003E00
1F003E00
0F80FC00
0FFFF800
07FFF000
0FFFE000
1F800000
3E000000
3C000000
3C000000
3E000000
3FFFC000
1FFFFE00
0FFFFF00
1FFFFF80
3F003F80
7C000FC0
780007C0
780007C0
F80007C0
78000780
7C000F80
7FFFFF00
3FFFFE00
0FFFFC00
ENDCHAR
STARTCHAR 0068
ENCODING 104
SWIDTH 596 0
DWIDTH 29 0
BBX 21 35 4 0
BITMAP
F80000
F80000
F80000
F80000
F80000
F80000
F80000
F80000
F80000
F80000
F87F80
F9FFC0
FBFFE0
FFDFF0
FF03F8
FC01F8
FC00F8
F800F8
F800F8
F800F8
F800F8
F800F8
F800F8
F800F8
F800F8
F800F8
F800F8
F800F8
F800F8
F800F8
F800F8
F800F8
F800F8
F800F8
F800F8
ENDCHAR
STARTCHAR 0069
ENCODING 105
SWIDTH 596 0
DWIDTH 29 0
BBX 22 35 5 0
BITMAP
00F800
00F800
00F800
00F800
00F800
000000
000000
000000
000000
000000
FFF800
FFF800
FFF800
FFF800
007800
007800
007800
007800
007800
007800
007800
007800
007800
007800
007800
007800
007800
007800
007800
007800
007800
FFFFFC
FFFFFC
FFFFFC
FFFFFC
ENDCHAR
STARTCHAR 006A
ENCODING 106
SWIDTH 596 0
DWIDTH 29 0
BBX 13 44 5 -9
BITMAP
00F8
00F8
00F8
00F8
00F8
0000
0000
0000
0000
0000
FFF8
FFF8
FFF8
FFF8
0078
0078
0078
0078
0078
0078
0078
0078
0078
0078
0078
0078
0078
0078
0078
0078
0078
0078
0078
0078
0078
0078
00F8
00F8
00F8
81F8
FFF0
FFF0
FFE0
3F80
ENDCHAR
STARTCHAR 006B
ENCODING 107
SWIDTH 596 0
DWIDTH 29 0
BBX 22 35 4 0
BITMAP
F80000
F80000
F80000
F80000
F80000
F80000
F80000
F80000
F80000
F80000
F800FC
F801F8
F803F0
F807E0
F80FC0
F80F80
F81F80
F83F00
F87E00
F8FC00
F9F800
F9F000
FBF800
FFF800
FFFC00
FF7E00
FE3F00
FC1F80
F81F80
F80FC0
F807E0
F803F0
F801F8
F801F8
F800FC
ENDCHAR
STARTCHAR 006C
ENCODING 108
SWIDTH 596 0
DWIDTH 29 0
BBX 22 35 4 0
BITMAP
FFF800
FFF800
FFF800
FFF800
007800
007800
007800
007800
007800
007800
007800
007800
007800
007800
007800
007800
007800
007800
007800
007800
007800
007800
007800
007800
007800
007800
007800
007800
007800
007800
007800
FFFFFC
FFFFFC
FFFFFC
FFFFFC
ENDCHAR
STARTCHAR 006D
ENCODING 109
SWIDTH 596 0
DWIDTH 29 0
BBX 24 25 3 0
BITMAP
E7E1F8
EFF3FC
FFF7FE
FFFFFE
F87E1F
F07C1F
F03C1F
F03C1F
F03C1F
F03C1F
F03C1F
F03C1F
F03C1F
F03C1F
F03C1F
F03C1F
F03C1F
F03C1F
F03C1F
F03C1F
F03C1F
F03C1F
F03C1F
F03C1F
F03C1F
ENDCHAR
STARTCHAR 006E
ENCODING 110
SWIDTH 596 0
DWIDTH 29 0
BBX 21 25 4 0
BITMAP
F0FF80
F3FFC0
F7FFE0
FFDFF0
FF03F8
FE01F8
FC00F8
FC00F8
F800F8
F800F8
F800F8
F800F8
F800F8
F800F8
F800F8
F800F8
F800F8
F800F8
F800F8
F800F8
F800F8
F800F8
F800F8
F800F8
F800F8
ENDCHAR
STARTCHAR 006F
ENCODING 111
SWIDTH 596 0
DWIDTH 29 0
BBX 23 25 3 0
BITMAP
01FF00
07FFC0
0FFFE0
1F83F0
3F01F8
3E00FC
7C007C
7C007C
F8003E
F8003E
F8003E
F8003E
F8003E
F8003E
F8003E
F8003E
F8003E
7C003C
7C007C
7E007C
3F00F8
1F83F0
0FFFF0
07FFC0
03FF80
ENDCHAR
STARTCHAR 0070
ENCODING 112
SWIDTH 596 0
DWIDTH 29 0
BBX 22 34 4 -9
BITMAP
F0FF80
F9FFC0
FBFFE0
FF83F0
FF01F8
FE00F8
FC007C
FC007C
FC007C
F8007C
F8003C
F8003C
F8003C
F8003C
F8003C
F8007C
F8007C
FC007C
FC007C
FE00F8
FE01F8
FF83F0
FFFFE0
FBFFC0
F8FF80
F80000
F80000
F80000
F80000
F80000
F80000
F80000
F80000
F80000
ENDCHAR
STARTCHAR 0071
ENCODING 113
SWIDTH 596 0
DWIDTH 29 0
BBX 22 34 3 -9
BITMAP
03FC3C
0FFE3C
1FFFBC
3F87FC
3E01FC
7C01FC
7C00FC
F800FC
F8007C
F8007C
F8007C
F8007C
F8007C
F8007C
F8007C
F8007C
F8007C
F800FC
F800FC
7C00FC
7E01FC
3F07FC
1FFF7C
0FFF7C
07FC7C
00007C
00007C
00007C
00007C
00007C
00007C
00007C
00007C
00007C
ENDCHAR
STARTCHAR 0072
ENCODING 114
SWIDTH 596 0
DWIDTH 29 0
BBX 25 25 2 0
BITMAP
FFC3F800
FFEFFE00
FFFFFF00
FFFFFF00
03F81F80
03F00F80
03F00780
03F00780
03E00780
03E00000
03E00000
03E00000
03E00000
03E00000
03E00000
03E00000
03E00000
03E00000
03E00000
03E00000
03E00000
FFFFFC00
FFFFFC00
FFFFFC00
FFFFFC00
ENDCHAR
STARTCHAR 0073
ENCODING 115
SWIDTH 596 0
DWIDTH 29 0
BBX 21 25 4 0
BITMAP
07FF00
1FFFC0
3FFFE0
7E03F0
7C01F0
F800F8
F800F8
F80000
FC0000
7F8000
7FF800
3FFF80
0FFFE0
01FFF0
001FF8
0001F8
0000F8
F00078
F00078
F00078
F800F8
7E03F8
7FFFF0
1FFFE0
07FF80
ENDCHAR
STARTCHAR 0074
ENCODING 116
SWIDTH 596 0
DWIDTH 29 0
BBX 24 33 2 0
BITMAP
007000
007000
007000
007000
00F000
00F000
00F000
00F000
FFFFFF
FFFFFF
FFFFFF
FFFFFF
00F000
00F000
00F000
00F000
00F000
00F000
00F000
00F000
00F000
00F000
00F000
00F000
00F000
00F000
00F800
00F800
00FC01
00FF9F
007FFF
003FFF
000FFE
ENDCHAR
STARTCHAR 0075
ENCODING 117
SWIDTH 596 0
DWIDTH 29 0
BBX 24 25 4 0
BITMAP
F800F8
F800F8
F800F8
F800F8
F800F8
F800F8
F800F8
F800F8
F800F8
F800F8
F800F8
F800F8
F800F8
F800F8
F800F8
F800F8
F800F8
F800F8
F801F8
F801F8
FC07F8
7F9FF9
7FFFFF
3FFE7F
0FF87F
ENDCHAR
STARTCHAR 0076
ENCODING 118
SWIDTH 596 0
DWIDTH 29 0
BBX 25 25 2 0
BITMAP
FC000F80
7C000F00
7C001F00
3E001F00
3E003E00
3F003E00
1F003C00
1F007C00
0F807C00
0F807800
0F80F800
07C0F000
07C1F000
07E1F000
03E1E000
03E3E000
01F3C000
01F3C000
01F7C000
00FF8000
00FF8000
007F0000
007F0000
007F0000
003E0000
ENDCHAR
STARTCHAR 0077
ENCODING 119
SWIDTH 596 0
DWIDTH 29 0
BBX 29 25 0 0
BITMAP
F00F8078
F00F8078
780FC078
780FC0F0
780FC0F0
781FC0F0
7C1FC0F0
3C1FE0F0
3C1DE1E0
3C3CE1E0
3C3CE1E0
1E3CF1E0
1E38F3C0
1E38F3C0
1E7873C0
1F7873C0
0F707FC0
0F707F80
0FF07F80
0FF03F80
07F03F80
07E03F00
07E03F00
07E03F00
03E01F00
ENDCHAR
STARTCHAR 0078
ENCODING 120
SWIDTH 596 0
DWIDTH 29 0
BBX 24 25 3 0
BITMAP
FC003E
7E007C
3F00F8
1F01F8
1F81F0
0FC3E0
07C7E0
07E7C0
03FF80
01FF80
01FF00
00FE00
00FE00
00FF00
01FF00
03FF80
03EFC0
07C7C0
0F87E0
1F83F0
1F01F0
3E01F8
7E00FC
7C007C
F8007F
ENDCHAR
STARTCHAR 0079
ENCODING 121
SWIDTH 596 0
DWIDTH 29 0
BBX 24 34 3 -9
BITMAP
F8001F
F8003E
7C003E
7C003C
7C007C
3E0078
3E00F8
1F00F8
1F00F0
1F01F0
0F81F0
0F81E0
0783E0
07C3C0
07C7C0
03E7C0
03E780
03EF80
01FF00
01FF00
00FF00
00FE00
00FE00
007C00
007C00
007C00
00F800
00F800
00F000
01F000
7FE000
7FC000
7F8000
3F0000
ENDCHAR
STARTCHAR 007A
ENCODING 122
SWIDTH 596 0
DWIDTH 29 0
BBX 19 25 5 0
BITMAP
7FFFE0
7FFFE0
7FFFC0
7FFFC0
000F80
001F00
003F00
003E00
007E00
007C00
00F800
01F800
01F000
03F000
07E000
07C000
0FC000
0F8000
1F0000
3F0000
3E0000
7FFFE0
7FFFE0
FFFFE0
FFFFE0
ENDCHAR
STARTCHAR 007B
ENCODING 123
SWIDTH 596 0
DWIDTH 29 0
BBX 12 41 9 -7
BITMAP
03F0
07F0
0F80
0F00
0F00
0F00
0F00
0F00
0F00
0F00
0F00
0F00
0E00
0E00
0E00
0E00
1E00
1E00
FC00
F800
F000
FC00
3E00
1E00
0E00
0E00
0E00
0E00
0E00
0F00
0F00
0F00
0F00
0F00
0F00
0F00
0F00
0F80
07F0
03F0
00F0
ENDCHAR
STARTCHAR 007C
ENCODING 124
SWIDTH 596 0
DWIDTH 29 0
BBX 3 45 13 -10
BITMAP
E0
E0
E0
E0
E0
E0
E0
E0
E0
E0
E0
E0
E0
E0
E0
E0
E0
E0
E0
E0
E0
E0
E0
E0
E0
E0
E0
E0
E0
E0
E0
E0
E0
E0
E0
E0
E0
E0
E0
E0
E0
E0
E0
E0
E0
ENDCHAR
STARTCHAR 007D
ENCODING 125
SWIDTH 596 0
DWIDTH 29 0
BBX 11 41 9 -7
BITMAP
F800
FC00
3E00
1E00
1E00
1F00
0F00
0F00
0F00
0F00
0F00
0F00
0F00
0F00
0F00
0F00
0F00
0F80
07E0
03E0
00E0
07E0
0F80
0F00
0F00
0F00
0F00
0F00
0F00
0F00
0F00
0F00
0F00
0F00
1F00
1F00
1E00
1E00
FE00
F800
E000
ENDCHAR
STARTCHAR 007E
ENCODING 126
SWIDTH 596 0
DWIDTH 29 0
BBX 27 9 1 10
BITMAP
00000020
0FE00020
3FFC0060
7FFF01E0
FFFFFFE0
F01FFFC0
C003FF80
8000FE00
80000000
ENDCHAR
STARTCHAR 00A0
ENCODING 160
SWIDTH 596 0
DWIDTH 29 0
BBX 0 0 0 0
BITMAP
ENDCHAR
STARTCHAR 00A1
ENCODING 161
SWIDTH 596 0
DWIDTH 29 0
BBX 7 34 11 -9
BITMAP
FE
FE
FE
FE
FE
FE
00
00
00
38
38
38
38
38
3C
3C
3C
7C
7C
7C
7C
7C
7C
7C
7C
7C
7C
7C
7C
7C
7C
7C
7C
7E
ENDCHAR
STARTCHAR 00A2
ENCODING 162
SWIDTH 596 0
DWIDTH 29 0
BBX 22 34 4 0
BITMAP
007800
007800
007800
003000
007000
03FF00
0FFFC0
1FFFE0
3F03F0
7E01F0
7C00F8
7C0078
F80078
F80078
F8007C
F80000
F80000
F80000
F80000
F80000
F8007C
F80078
F80078
7C0078
7C00F8
3E01F0
3F87F0
1FFFE0
07FF80
01FF00
003000
007000
007800
007800
ENDCHAR
STARTCHAR 00A3
ENCODING 163
SWIDTH 596 0
DWIDTH 29 0
BBX 26 34 1 0
BITMAP
000FF000
003FFC00
00FFFE00
01FFFF00
01F81F80
03F00F80
03E007C0
03E007C0
07C007C0
07C007C0
07C00000
07C00000
07C00000
07C00000
07C00000
07C00000
FFFFE000
FFFFE000
FFFFE000
FFFFE000
07C00000
07C00000
07C00000
07C00000
07C00000
07C00000
07C00000
07C00000
07C00000
07C00000
7FFFFF80
7FFFFF80
7FFFFF80
7FFFFF80
ENDCHAR
STARTCHAR 00A4
ENCODING 164
SWIDTH 596 0
DWIDTH 29 0
BBX 25 25 2 4
BITMAP
20000200
70FF8700
FBFFEF80
7FFFFF00
3F80FE00
1F007C00
3E001E00
3C001F00
78000F00
78000700
70000700
70000780
70000780
70000780
70000780
70000700
78000F00
7C000F00
3C001E00
1E003E00
3F80FE00
7FFFFF00
FBFFEF80
71FFC700
201E0200
ENDCHAR
STARTCHAR 00A5
ENCODING 165
SWIDTH 596 0
DWIDTH 29 0
BBX 27 33 1 0
BITMAP
FC0003E0
7C0007C0
7E0007C0
3F000F80
3F000F80
1F801F00
0F801F00
0FC03E00
07C07E00
07E07C00
03E0F800
03F0F800
7FF1FFC0
7FF9FFC0
7FFBFFC0
00FFE000
007FC000
007FC000
7FFFFFC0
7FFFFFC0
7FFFFFC0
001F0000
001F0000
001F0000
001F0000
001F0000
001F0000
001F0000
001F0000
001F0000
001F0000
001F0000
001F0000
ENDCHAR
STARTCHAR 00A6
ENCODING 166
SWIDTH 596 0
DWIDTH 29 0
BBX 3 45 13 -10
BITMAP
E0
E0
E0
E0
E0
E0
E0
E0
E0
E0
E0
E0
E0
E0
E0
E0
E0
E0
00
00
00
00
00
00
00
00
00
E0
E0
E0
E0
E0
E0
E0
E0
E0
E0
E0
E0
E0
E0
E0
E0
E0
E0
ENDCHAR
STARTCHAR 00A7
ENCODING 167
SWIDTH 596 0
DWIDTH 29 0
BBX 21 43 4 -9
BITMAP
01FC00
0FFF80
1FFFC0
3FFFE0
7E01F0
7C00F0
7800F8
F800F8
F80000
7C0000
7E0000
3F0000
3FC000
1FF000
0FFE00
3FFF80
7C7FC0
781FE0
F007F0
F001F8
F000F8
F00078
F80078
FC0078
7E0078
3F8078
1FF0F0
0FFFE0
03FFC0
007FC0
001FE0
0007E0
0003F0
0001F0
0000F8
7800F8
7800F8
7800F0
7C01F0
3FDFE0
1FFFC0
0FFF80
01FE00
ENDCHAR
STARTCHAR 00A8
ENCODING 168
SWIDTH 596 0
DWIDTH 29 0
BBX 15 4 7 30
BITMAP
F01E
F01E
F01E
F01E
ENDCHAR
STARTCHAR 00A9
ENCODING 169
SWIDTH 596 0
DWIDTH 29 0
BBX 29 34 0 0
BITMAP
000FC000
00FFF800
01E03E00
07800F00
0E000380
0C0001C0
180000C0
381FC0E0
303FF060
70FFF870
60F03C30
61E01C30
61C01C30
61C01E18
E1C00E18
C1C00018
C1C00018
C1C00018
C1C00018
C1C00018
E1C00E18
61C01C38
61E01C30
61E01C30
60F87830
307FF860
303FE060
180780E0
1C0001C0
0E000180
07000700
03800E00
01FCFC00
007FF000
ENDCHAR
STARTCHAR 00AA
ENCODING 170
SWIDTH 596 0
DWIDTH 29 0
BBX 15 16 7 18
BITMAP
0FC0
3FF0
7FF8
7038
7038
0038
0078
3FF8
7FF8
F038
F038
E038
F078
FFFE
7FBE
1E1E
ENDCHAR
STARTCHAR 00AB
ENCODING 171
SWIDTH 596 0
DWIDTH 29 0
BBX 19 17 5 8
BITMAP
0781E0
0703C0
0F03C0
1E0780
1E0F80
3C0F00
7C1F00
F83E00
F87C00
F83E00
7C1E00
3C1F00
3E0F00
1E0780
0F03C0
0F03C0
0781E0
ENDCHAR
STARTCHAR 00AC
ENCODING 172
SWIDTH 596 0
DWIDTH 29 0
BBX 25 14 2 8
BITMAP
FFFFFF80
FFFFFF80
FFFFFF80
FFFFFF80
00000780
00000780
00000780
00000780
00000780
00000780
00000780
00000780
00000780
00000780
ENDCHAR
STARTCHAR 00AD
ENCODING 173
SWIDTH 596 0
DWIDTH 29 0
BBX 13 4 8 11
BITMAP
FFF8
FFF8
FFF8
FFF8
ENDCHAR
STARTCHAR 00AE
ENCODING 174
SWIDTH 596 0
DWIDTH 29 0
BBX 29 34 0 0
BITMAP
000FC000
00FFF800
01E03E00
07800F00
0E000380
0C0001C0
180000C0
38FF80E0
30FFF060
70FFF870
60E03C30
60E01C30
60E01C30
60E01C18
E0E01C18
C0E03818
C0FFF018
C0FFE018
C0FFF818
C0E03818
E0E03C18
60E01C38
60E01C30
60E01C30
60E01C30
30E01C60
30E01E60
180004E0
1C0001C0
0E000180
07000700
03800E00
01FCFC00
007FF000
ENDCHAR
STARTCHAR 00AF
ENCODING 175
SWIDTH 596 0
DWIDTH 29 0
BBX 15 3 7 30
BITMAP
FFFE
FFFE
FFFE
ENDCHAR
STARTCHAR 00B0
ENCODING 176
SWIDTH 596 0
DWIDTH 29 0
BBX 15 15 7 19
BITMAP
07C0
1FF0
3FF8
783C
701E
F00E
E00E
E00E
E00E
F00E
701E
7C3C
3FF8
1FF0
03C0
ENDCHAR
STARTCHAR 00B1
ENCODING 177
SWIDTH 596 0
DWIDTH 29 0
BBX 25 25 2 0
BITMAP
001E0000
001E0000
001E0000
001E0000
001E0000
001E0000
001E0000
FFFFFF80
FFFFFF80
FFFFFF80
FFFFFF80
001E0000
001E0000
001E0000
001E0000
001E0000
001E0000
001E0000
00000000
00000000
00000000
FFFFFF80
FFFFFF80
FFFFFF80
FFFFFF80
ENDCHAR
STARTCHAR 00B2
ENCODING 178
SWIDTH 596 0
DWIDTH 29 0
BBX 13 18 8 21
BITMAP
0FC0
3FE0
7FF0
7070
E078
E038
E038
0078
0070
01E0
03E0
0F80
1F00
3C00
7800
F000
FFF8
FFF8
ENDCHAR
STARTCHAR 00B3
ENCODING 179
SWIDTH 596 0
DWIDTH 29 0
BBX 13 19 8 20
BITMAP
0F80
3FE0
7FF0
7070
E038
E038
0070
0070
0FE0
0FE0
01F0
0078
0038
E038
E038
F078
7FF0
3FE0
0F80
ENDCHAR
STARTCHAR 00B4
ENCODING 180
SWIDTH 596 0
DWIDTH 29 0
BBX 9 8 10 29
BITMAP
0F80
1F00
1E00
1E00
3C00
3C00
7800
F000
ENDCHAR
STARTCHAR 00B5
ENCODING 181
SWIDTH 596 0
DWIDTH 29 0
BBX 24 33 4 -8
BITMAP
F800F8
F800F8
F800F8
F800F8
F800F8
F800F8
F800F8
F800F8
F800F8
F800F8
F800F8
F800F8
F800F8
F800F8
F800F8
F800F8
F800F8
F800F8
F801F8
F801F8
FC07F8
FF9FF9
FFFFFF
FFFE7F
F7F87F
F00000
F80000
F80000
F80000
F80000
F80000
F80000
F80000
ENDCHAR
STARTCHAR 00B6
ENCODING 182
SWIDTH 596 0
DWIDTH 29 0
BBX 23 41 2 -8
BITMAP
03FFFE
07FFFE
1FFFFE
3FF8E0
3FF8E0
7FF8E0
7FF8E0
FFF8E0
FFF8E0
FFF8E0
FFF8E0
FFF8E0
FFF8E0
7FF8E0
7FF8E0
7FF8E0
3FF8E0
1FF8E0
0FF8E0
07F8E0
00F8E0
0038E0
0038E0
0038E0
0038E0
0038E0
0038E0
0038E0
0038E0
0038E0
0038E0
0038E0
0038E0
0038E0
0038E0
0038E0
0038E0
0038E0
0038E0
0038E0
0038E0
ENDCHAR
STARTCHAR 00B7
ENCODING 183
SWIDTH 596 0
DWIDTH 29 0
BBX 7 6 11 15
BITMAP
FE
FE
FE
FE
FE
FE
ENDCHAR
STARTCHAR 00B8
ENCODING 184
SWIDTH 596 0
DWIDTH 29 0
BBX 11 9 9 -10
BITMAP
0C00
0F80
03C0
01E0
00E0
01E0
67C0
7FC0
FF00
ENDCHAR
STARTCHAR 00B9
ENCODING 185
SWIDTH 596 0
DWIDTH 29 0
BBX 12 18 8 21
BITMAP
0300
1F00
FF00
FF00
0700
0700
0700
0700
0700
0700
0700
0700
0700
0700
0700
0700
FFF0
FFF0
ENDCHAR
STARTCHAR 00BA
ENCODING 186
SWIDTH 596 0
DWIDTH 29 0
BBX 14 16 8 18
BITMAP
0F80
3FE0
7DF0
F078
E038
E038
E03C
E03C
E03C
E03C
E038
F038
7078
7FF0
3FE0
0700
ENDCHAR
STARTCHAR 00BB
ENCODING 187
SWIDTH 596 0
DWIDTH 29 0
BBX 20 17 5 8
BITMAP
F03C00
781E00
381E00
3C0F00
1E0F80
1F0780
0F03C0
0F83E0
07C1F0
0F83E0
0F03C0
1F07C0
1E0780
3C0F00
3C1E00
781E00
F03C00
ENDCHAR
STARTCHAR 00BC
ENCODING 188
SWIDTH 596 0
DWIDTH 29 0
BBX 29 34 0 0
BITMAP
03000000
1F000078
FF0000F0
FF0000E0
070001C0
07000380
07000780
07000700
07000E00
07001C00
07003800
07003800
07007000
0700E000
07000000
07000000
FFE00700
FFE00700
00000E00
00000E60
001C1C60
00381CE0
007038E0
00E038E0
01E070E0
01C070E0
0380E0E0
0700FFF8
0F00FFF8
0E00FFF8
1C0000E0
3C0000E0
780000E0
F00000E0
ENDCHAR
STARTCHAR 00BD
ENCODING 189
SWIDTH 596 0
DWIDTH 29 0
BBX 29 34 0 0
BITMAP
03000008
1F000070
FF0000E0
FF0001E0
070001C0
07000380
07000700
07000F00
07000E00
07001C00
07003800
07007000
07007000
0700E000
07010000
07000000
FFE00FC0
FFE03FF0
00007FF0
00007078
00387038
0038E038
0070E038
00E00038
01C00070
03C000F0
038003E0
07000780
0F001F00
1E003E00
3C007800
38007000
7800FFF8
F000FFF8
ENDCHAR
STARTCHAR 00BE
ENCODING 190
SWIDTH 596 0
DWIDTH 29 0
BBX 29 34 0 0
BITMAP
0F800000
3FE00078
7FF000F0
707800E0
E03801C0
E0380380
00380780
00700700
0FE00E00
0FE01C00
01F03800
00383800
00387000
E038E000
E0380000
F0780000
7FF00700
3FE00700
0F800E00
00000E60
001C1C60
00381CE0
007038E0
00E038E0
01E070E0
01C070E0
0380E0E0
0700FFF8
0F00FFF8
0E00FFF8
1C0000E0
3C0000E0
780000E0
F00000E0
ENDCHAR
STARTCHAR 00BF
ENCODING 191
SWIDTH 596 0
DWIDTH 29 0
BBX 21 34 4 -9
BITMAP
01F800
01F800
01F800
01F800
01F800
01F800
000000
000000
000000
00F000
00F000
00F000
00F000
01F000
01F000
03E000
07E000
1FC000
3F0000
7E0000
7E0000
FC0000
F800F8
F80078
F80078
F800F8
F800F8
FC00F8
7C01F0
7F03F0
3FFFE0
1FFFC0
0FFF00
03FC00
ENDCHAR
STARTCHAR 00C0
ENCODING 192
SWIDTH 596 0
DWIDTH 29 0
BBX 28 43 1 0
BITMAP
03F00000
00F80000
00780000
003C0000
003E0000
001F0000
00000000
00000000
00000000
00000000
003F8000
003F8000
003FC000
007FC000
007FC000
007BE000
00FBE000
00F3E000
00F1F000
01F1F000
01F1F000
01E0F800
03E0F800
03E0F800
03C07800
07C07C00
07C07C00
07807C00
0F803E00
0F803E00
0F803E00
1F001F00
1FFFFF00
1FFFFF00
3FFFFF80
3FFFFF80
3E000F80
7C0007C0
7C0007C0
7C0007C0
F80003E0
F80003E0
F80003F0
ENDCHAR
STARTCHAR 00C1
ENCODING 193
SWIDTH 596 0
DWIDTH 29 0
BBX 28 43 1 0
BITMAP
0000F800
0001F000
0003E000
0003C000
00078000
000F0000
00100000
00000000
00000000
00000000
003F8000
003F8000
003FC000
007FC000
007FC000
007BE000
00FBE000
00F3E000
00F1F000
01F1F000
01F1F000
01E0F800
03E0F800
03E0F800
03C07800
07C07C00
07C07C00
07807C00
0F803E00
0F803E00
0F803E00
1F001F00
1FFFFF00
1FFFFF00
3FFFFF80
3FFFFF80
3E000F80
7C0007C0
7C0007C0
7C0007C0
F80003E0
F80003E0
F80003F0
ENDCHAR
STARTCHAR 00C2
ENCODING 194
SWIDTH 596 0
DWIDTH 29 0
BBX 28 43 1 0
BITMAP
001F8000
003F8000
007BC000
00F1E000
01E0F000
03C07C00
04000000
00000000
00000000
00000000
003F8000
003F8000
003FC000
007FC000
007FC000
007BE000
00FBE000
00F3E000
00F1F000
01F1F000
01F1F000
01E0F800
03E0F800
03E0F800
03C07800
07C07C00
07C07C00
07807C00
0F803E00
0F803E00
0F803E00
1F001F00
1FFFFF00
1FFFFF00
3FFFFF80
3FFFFF80
3E000F80
7C0007C0
7C0007C0
7C0007C0
F80003E0
F80003E0
F80003F0
ENDCHAR
STARTCHAR 00C3
ENCODING 195
SWIDTH 596 0
DWIDTH 29 0
BBX 28 43 1 0
BITMAP
00F00C00
01FE1C00
03FFFC00
07FFF800
0707F000
0701E000
00000000
00000000
00000000
00000000
003F8000
003F8000
003FC000
007FC000
007FC000
007BE000
00FBE000
00F3E000
00F1F000
01F1F000
01F1F000
01E0F800
03E0F800
03E0F800
03C07800
07C07C00
07C07C00
07807C00
0F803E00
0F803E00
0F803E00
1F001F00
1FFFFF00
1FFFFF00
3FFFFF80
3FFFFF80
3E000F80
7C0007C0
7C0007C0
7C0007C0
F80003E0
F80003E0
F80003F0
ENDCHAR
STARTCHAR 00C4
ENCODING 196
SWIDTH 596 0
DWIDTH 29 0
BBX 28 42 1 0
BITMAP
03E07800
03E07800
03E07800
03E07800
00000000
00000000
00000000
00000000
00000000
003F8000
003F8000
003FC000
007FC000
007FC000
007BE000
00FBE000
00F3E000
00F1F000
01F1F000
01F1F000
01E0F800
03E0F800
03E0F800
03C07800
07C07C00
07C07C00
07807C00
0F803E00
0F803E00
0F803E00
1F001F00
1FFFFF00
1FFFFF00
3FFFFF80
3FFFFF80
3E000F80
7C0007C0
7C0007C0
7C0007C0
F80003E0
F80003E0
F80003F0
ENDCHAR
STARTCHAR 00C5
ENCODING 197
SWIDTH 596 0
DWIDTH 29 0
BBX 28 46 1 0
BITMAP
001F0000
003F8000
007BC000
0060E000
00E0E000
00E0E000
0060E000
007BC000
003F8000
001F0000
00000000
00000000
00000000
003F8000
003F8000
003FC000
007FC000
007FC000
007BE000
00FBE000
00F3E000
00F1F000
01F1F000
01F1F000
01E0F800
03E0F800
03E0F800
03C07800
07C07C00
07C07C00
07807C00
0F803E00
0F803E00
0F803E00
1F001F00
1FFFFF00
1FFFFF00
3FFFFF80
3FFFFF80
3E000F80
7C0007C0
7C0007C0
7C0007C0
F80003E0
F80003E0
F80003F0
ENDCHAR
STARTCHAR 00C6
ENCODING 198
SWIDTH 596 0
DWIDTH 29 0
BBX 29 33 0 0
BITMAP
001FFFF0
003FFFF0
003FFFF0
003FFFF0
007FE000
007FE000
007BE000
00FBE000
00FBE000
00F3E000
01F3E000
01F3E000
01E3E000
03E3E000
03E3FFC0
03C3FFC0
07C3FFC0
07C3FFC0
07C3E000
0F83E000
0F83E000
0F83E000
1FFFE000
1FFFE000
1FFFE000
3FFFE000
3E03E000
3E03E000
7C03E000
7C03FFF0
7C03FFF0
F803FFF0
F803FFF8
ENDCHAR
STARTCHAR 00C7
ENCODING 199
SWIDTH 596 0
DWIDTH 29 0
BBX 25 44 2 -10
BITMAP
007F0000
03FFE000
07FFF800
1FFFFC00
1FE1FE00
3F007E00
7E003F00
7C001F00
7C001F00
FC000F80
F8000F80
F8000F80
F8000F80
F8000000
F8000000
F8000000
F8000000
F8000000
F8000000
F8000000
F8000000
F8000F80
F8000F80
F8000F80
F8000F80
FC000F80
7C001F00
7E001F00
7E003F00
3F807E00
1FFFFC00
0FFFF800
07FFF000
01FFC000
00000000
00180000
001F0000
00078000
0003C000
0001C000
0003C000
00CF8000
00FF8000
01FE0000
ENDCHAR
STARTCHAR 00C8
ENCODING 200
SWIDTH 596 0
DWIDTH 29 0
BBX 22 43 4 0
BITMAP
0F8000
07C000
03E000
01F000
00F000
007800
000400
000000
000000
000000
FFFFFC
FFFFFC
FFFFFC
FFFFF8
F80000
F80000
F80000
F80000
F80000
F80000
F80000
F80000
F80000
F80000
FFFFF0
FFFFF0
FFFFF0
FFFFF0
F80000
F80000
F80000
F80000
F80000
F80000
F80000
F80000
F80000
F80000
F80000
FFFFFC
FFFFFC
FFFFFC
FFFFFC
ENDCHAR
STARTCHAR 00C9
ENCODING 201
SWIDTH 596 0
DWIDTH 29 0
BBX 22 43 4 0
BITMAP
0007E0
000780
000F80
001F00
001E00
003C00
004000
000000
000000
000000
FFFFFC
FFFFFC
FFFFFC
FFFFF8
F80000
F80000
F80000
F80000
F80000
F80000
F80000
F80000
F80000
F80000
FFFFF0
FFFFF0
FFFFF0
FFFFF0
F80000
F80000
F80000
F80000
F80000
F80000
F80000
F80000
F80000
F80000
F80000
FFFFFC
FFFFFC
FFFFFC
FFFFFC
ENDCHAR
STARTCHAR 00CA
ENCODING 202
SWIDTH 596 0
DWIDTH 29 0
BBX 22 43 4 0
BITMAP
00FC00
01FE00
03EF00
03C780
0783C0
1F01E0
000000
000000
000000
000000
FFFFFC
FFFFFC
FFFFFC
FFFFF8
F80000
F80000
F80000
F80000
F80000
F80000
F80000
F80000
F80000
F80000
FFFFF0
FFFFF0
FFFFF0
FFFFF0
F80000
F80000
F80000
F80000
F80000
F80000
F80000
F80000
F80000
F80000
F80000
FFFFFC
FFFFFC
FFFFFC
FFFFFC
ENDCHAR
STARTCHAR 00CB
ENCODING 203
SWIDTH 596 0
DWIDTH 29 0
BBX 22 42 4 0
BITMAP
0F03E0
0F03E0
0F03E0
0F03E0
000000
000000
000000
000000
000000
FFFFFC
FFFFFC
FFFFFC
FFFFF8
F80000
F80000
F80000
F80000
F80000
F80000
F80000
F80000
F80000
F80000
FFFFF0
FFFFF0
FFFFF0
FFFFF0
F80000
F80000
F80000
F80000
F80000
F80000
F80000
F80000
F80000
F80000
F80000
FFFFFC
FFFFFC
FFFFFC
FFFFFC
ENDCHAR
STARTCHAR 00CC
ENCODING 204
SWIDTH 596 0
DWIDTH 29 0
BBX 19 43 5 0
BITMAP
3F0000
0F8000
078000
03C000
03E000
01F000
000000
000000
000000
000000
FFFFE0
FFFFE0
FFFFE0
FFFFE0
01F000
01F000
01F000
01F000
01F000
01F000
01F000
01F000
01F000
01F000
01F000
01F000
01F000
01F000
01F000
01F000
01F000
01F000
01F000
01F000
01F000
01F000
01F000
01F000
01F000
FFFFE0
FFFFE0
FFFFE0
FFFFE0
ENDCHAR
STARTCHAR 00CD
ENCODING 205
SWIDTH 596 0
DWIDTH 29 0
BBX 19 43 5 0
BITMAP
000F80
001F00
003E00
003C00
007800
00F000
010000
000000
000000
000000
FFFFE0
FFFFE0
FFFFE0
FFFFE0
01F000
01F000
01F000
01F000
01F000
01F000
01F000
01F000
01F000
01F000
01F000
01F000
01F000
01F000
01F000
01F000
01F000
01F000
01F000
01F000
01F000
01F000
01F000
01F000
01F000
FFFFE0
FFFFE0
FFFFE0
FFFFE0
ENDCHAR
STARTCHAR 00CE
ENCODING 206
SWIDTH 596 0
DWIDTH 29 0
BBX 19 43 5 0
BITMAP
01F800
03F800
07BC00
0F1E00
1E0F00
3C07C0
400000
000000
000000
000000
FFFFE0
FFFFE0
FFFFE0
FFFFE0
01F000
01F000
01F000
01F000
01F000
01F000
01F000
01F000
01F000
01F000
01F000
01F000
01F000
01F000
01F000
01F000
01F000
01F000
01F000
01F000
01F000
01F000
01F000
01F000
01F000
FFFFE0
FFFFE0
FFFFE0
FFFFE0
ENDCHAR
STARTCHAR 00CF
ENCODING 207
SWIDTH 596 0
DWIDTH 29 0
BBX 19 42 5 0
BITMAP
3E0780
3E0780
3E0780
3E0780
000000
000000
000000
000000
000000
FFFFE0
FFFFE0
FFFFE0
FFFFE0
01F000
01F000
01F000
01F000
01F000
01F000
01F000
01F000
01F000
01F000
01F000
01F000
01F000
01F000
01F000
01F000
01F000
01F000
01F000
01F000
01F000
01F000
01F000
01F000
01F000
FFFFE0
FFFFE0
FFFFE0
FFFFE0
ENDCHAR
STARTCHAR 00D0
ENCODING 208
SWIDTH 596 0
DWIDTH 29 0
BBX 28 33 0 0
BITMAP
0FFFF800
0FFFFE00
0FFFFF00
0FFFFF80
0F801FC0
0F8007E0
0F8007E0
0F8003F0
0F8001F0
0F8001F0
0F8001F0
0F8001F0
0F8001F0
0F8001F0
0F8001F0
FFFF81F0
FFFF81F0
FFFF81F0
0F8001F0
0F8001F0
0F8001F0
0F8001F0
0F8001F0
0F8001F0
0F8003F0
0F8003E0
0F8007E0
0F800FC0
0F803FC0
0FFFFF80
0FFFFF00
0FFFFC00
0FFFE000
ENDCHAR
STARTCHAR 00D1
ENCODING 209
SWIDTH 596 0
DWIDTH 29 0
BBX 22 43 4 0
BITMAP
078060
0FF0E0
1FFFE0
3FFFC0
383F80
380F00
000000
000000
000000
000000
F8007C
FC007C
FC007C
FE007C
FE007C
FF007C
FF007C
FF807C
FF807C
F7C07C
F7C07C
F3E07C
F3E07C
F1F07C
F1F07C
F0F87C
F0F87C
F07C7C
F07C7C
F03E7C
F03E7C
F01F7C
F01F7C
F00FFC
F00FFC
F007FC
F007FC
F003FC
F003FC
F001FC
F001FC
F000FC
F000FC
ENDCHAR
STARTCHAR 00D2
ENCODING 210
SWIDTH 596 0
DWIDTH 29 0
BBX 25 43 2 0
BITMAP
07E00000
01F00000
00F00000
00780000
007C0000
003E0000
00000000
00000000
00000000
007F0000
03FFE000
07FFF800
1FFFFC00
1FE3FE00
3F007E00
7E003F00
7C001F00
7C001F80
FC000F80
F8000F80
F8000F80
F8000F80
F8000F80
F8000F80
F8000F80
F8000F80
F8000F80
F8000F80
F8000F80
F8000F80
F8000F80
F8000F80
F8000F80
F8000F80
FC000F80
7C001F00
7E001F00
7E003F00
3F807E00
1FFFFC00
0FFFF800
07FFF000
01FFC000
ENDCHAR
STARTCHAR 00D3
ENCODING 211
SWIDTH 596 0
DWIDTH 29 0
BBX 25 43 2 0
BITMAP
0001F000
0003E000
0007C000
00078000
000F0000
001E0000
00200000
00000000
00000000
007F0000
03FFE000
07FFF800
1FFFFC00
1FE3FE00
3F007E00
7E003F00
7C001F00
7C001F80
FC000F80
F8000F80
F8000F80
F8000F80
F8000F80
F8000F80
F8000F80
F8000F80
F8000F80
F8000F80
F8000F80
F8000F80
F8000F80
F8000F80
F8000F80
F8000F80
FC000F80
7C001F00
7E001F00
7E003F00
3F807E00
1FFFFC00
0FFFF800
07FFF000
01FFC000
ENDCHAR
STARTCHAR 00D4
ENCODING 212
SWIDTH 596 0
DWIDTH 29 0
BBX 25 43 2 0
BITMAP
003F0000
007F0000
00F78000
01E3C000
03C1E000
0780F800
08000000
00000000
00000000
007F0000
03FFE000
07FFF800
1FFFFC00
1FE3FE00
3F007E00
7E003F00
7C001F00
7C001F80
FC000F80
F8000F80
F8000F80
F8000F80
F8000F80
F8000F80
F8000F80
F8000F80
F8000F80
F8000F80
F8000F80
F8000F80
F8000F80
F8000F80
F8000F80
F8000F80
FC000F80
7C001F00
7E001F00
7E003F00
3F807E00
1FFFFC00
0FFFF800
07FFF000
01FFC000
ENDCHAR
STARTCHAR 00D5
ENCODING 213
SWIDTH 596 0
DWIDTH 29 0
BBX 25 43 2 0
BITMAP
01E01800
03FC3800
07FFF800
0FFFF000
0E0FE000
0E03C000
00000000
00000000
00000000
007F0000
03FFE000
07FFF800
1FFFFC00
1FE3FE00
3F007E00
7E003F00
7C001F00
7C001F80
FC000F80
F8000F80
F8000F80
F8000F80
F8000F80
F8000F80
F8000F80
F8000F80
F8000F80
F8000F80
F8000F80
F8000F80
F8000F80
F8000F80
F8000F80
F8000F80
FC000F80
7C001F00
7E001F00
7E003F00
3F807E00
1FFFFC00
0FFFF800
07FFF000
01FFC000
ENDCHAR
STARTCHAR 00D6
ENCODING 214
SWIDTH 596 0
DWIDTH 29 0
BBX 25 42 2 0
BITMAP
07C0F000
07C0F000
07C0F000
07C0F000
00000000
00000000
00000000
00000000
007F0000
03FFE000
07FFF800
1FFFFC00
1FE3FE00
3F007E00
7E003F00
7C001F00
7C001F80
FC000F80
F8000F80
F8000F80
F8000F80
F8000F80
F8000F80
F8000F80
F8000F80
F8000F80
F8000F80
F8000F80
F8000F80
F8000F80
F8000F80
F8000F80
F8000F80
FC000F80
7C001F00
7E001F00
7E003F00
3F807E00
1FFFFC00
0FFFF800
07FFF000
01FFC000
ENDCHAR
STARTCHAR 00D7
ENCODING 215
SWIDTH 596 0
DWIDTH 29 0
BBX 21 21 4 2
BITMAP
100020
300060
7800F0
FC01F8
3E03E0
1F07C0
0F8FC0
07DF80
03FF00
01FE00
00FC00
01FC00
03FE00
07DF00
0F8F80
1F07C0
3E03E0
7C01F8
F800F0
300060
100040
ENDCHAR
STARTCHAR 00D8
ENCODING 216
SWIDTH 596 0
DWIDTH 29 0
BBX 27 40 1 -3
BITMAP
000000E0
000001C0
000001C0
003F8380
01FFF780
03FFFF00
0FFFFE00
0FF1FF00
1F803F00
3F003F80
3E003F80
3E007FC0
7E0077C0
7C00E7C0
7C01E7C0
7C01C7C0
7C0387C0
7C0387C0
7C0707C0
7C0F07C0
7C0E07C0
7C1C07C0
7C1C07C0
7C3807C0
7C7807C0
7C7007C0
7CE007C0
7CE007C0
7FC007C0
3FC00F80
3F800F80
3F001F80
1FC03F00
0FFFFE00
1FFFFC00
1FFFF800
38FFE000
38000000
70000000
F0000000
ENDCHAR
STARTCHAR 00D9
ENCODING 217
SWIDTH 596 0
DWIDTH 29 0
BBX 23 43 3 0
BITMAP
0FC000
03E000
01E000
00F000
00F800
007C00
000000
000000
000000
000000
F8003E
F8003E
F8003E
F8003E
F8003E
F8003E
F8003E
F8003E
F8003E
F8003E
F8003E
F8003E
F8003E
F8003E
F8003E
F8003E
F8003E
F8003E
F8003E
F8003E
F8003E
F8003E
F8003E
F8003E
F8003E
FC003E
7C007C
7E00FC
7F01FC
3FFFF8
1FFFF0
0FFFE0
03FF80
ENDCHAR
STARTCHAR 00DA
ENCODING 218
SWIDTH 596 0
DWIDTH 29 0
BBX 23 43 3 0
BITMAP
0003E0
0007C0
000F80
000F00
001E00
003C00
004000
000000
000000
000000
F8003E
F8003E
F8003E
F8003E
F8003E
F8003E
F8003E
F8003E
F8003E
F8003E
F8003E
F8003E
F8003E
F8003E
F8003E
F8003E
F8003E
F8003E
F8003E
F8003E
F8003E
F8003E
F8003E
F8003E
F8003E
FC003E
7C007C
7E00FC
7F01FC
3FFFF8
1FFFF0
0FFFE0
03FF80
ENDCHAR
STARTCHAR 00DB
ENCODING 219
SWIDTH 596 0
DWIDTH 29 0
BBX 23 43 3 0
BITMAP
007E00
00FE00
01EF00
03C780
0783C0
0F01F0
100000
000000
000000
000000
F8003E
F8003E
F8003E
F8003E
F8003E
F8003E
F8003E
F8003E
F8003E
F8003E
F8003E
F8003E
F8003E
F8003E
F8003E
F8003E
F8003E
F8003E
F8003E
F8003E
F8003E
F8003E
F8003E
F8003E
F8003E
FC003E
7C007C
7E00FC
7F01FC
3FFFF8
1FFFF0
0FFFE0
03FF80
ENDCHAR
STARTCHAR 00DC
ENCODING 220
SWIDTH 596 0
DWIDTH 29 0
BBX 23 42 3 0
BITMAP
0F81E0
0F81E0
0F81E0
0F81E0
000000
000000
000000
000000
000000
F8003E
F8003E
F8003E
F8003E
F8003E
F8003E
F8003E
F8003E
F8003E
F8003E
F8003E
F8003E
F8003E
F8003E
F8003E
F8003E
F8003E
F8003E
F8003E
F8003E
F8003E
F8003E
F8003E
F8003E
F8003E
FC003E
7C007C
7E00FC
7F01FC
3FFFF8
1FFFF0
0FFFE0
03FF80
ENDCHAR
STARTCHAR 00DD
ENCODING 221
SWIDTH 596 0
DWIDTH 29 0
BBX 27 43 1 0
BITMAP
0000F800
0001F000
0003E000
0003C000
00078000
000F0000
00100000
00000000
00000000
00000000
FC0003E0
7C0007C0
7E0007C0
3F000F80
3F000F80
1F801F00
0F801F00
0FC03E00
07C07E00
07E07C00
03E0FC00
03F0F800
01F1F000
01F9F000
00FBE000
00FFE000
007FC000
007FC000
003F8000
003F8000
001F0000
001F0000
001F0000
001F0000
001F0000
001F0000
001F0000
001F0000
001F0000
001F0000
001F0000
001F0000
001F0000
ENDCHAR
STARTCHAR 00DE
ENCODING 222
SWIDTH 596 0
DWIDTH 29 0
BBX 24 33 4 0
BITMAP
F80000
F80000
F80000
F80000
F80000
F80000
FFFFC0
FFFFF0
FFFFF8
FFFFFC
F800FE
F8007E
F8003F
F8003F
F8001F
F8001F
F8001F
F8003F
F8003E
F8007E
F800FC
FFFFFC
FFFFF8
FFFFE0
FFFF80
F80000
F80000
F80000
F80000
F80000
F80000
F80000
F80000
ENDCHAR
STARTCHAR 00DF
ENCODING 223
SWIDTH 596 0
DWIDTH 29 0
BBX 27 38 0 -3
BITMAP
003FF000
00FFFC00
01FFFE00
03FFFF00
03F01F80
07C00F80
07C00FC0
078007C0
0F8007C0
0F8007C0
FF8007C0
FF800780
FF800F80
FF801F00
0F80FE00
0F8FFC00
0F8FFC00
0F8FFE00
0F803F00
0F800F80
0F8007C0
0F8007C0
0F8003E0
0F8003E0
0F8003E0
0F8003E0
0F8003E0
0F8007E0
0F8007C0
0F800FC0
0F803F80
0F8FFF00
0F8FFE00
0F8FFC00
0F8FF000
0F800000
0F800000
0F800000
ENDCHAR
STARTCHAR 00E0
ENCODING 224
SWIDTH 596 0
DWIDTH 29 0
BBX 24 37 3 0
BITMAP
07C000
03C000
03E000
01E000
00F000
00F000
007800
003800
000400
000000
000000
000000
03FF80
0FFFE0
1FFFF0
3F03F0
7E01F8
7C00F8
7C00F8
7C00F8
0000F8
0000F8
001FF8
03FFF8
1FFFF8
3FF8F8
7E00F8
7C00F8
F800F8
F800F8
F800F8
F801F8
FC03F8
7E07F9
7FFF7F
3FFE7F
1FF83F
ENDCHAR
STARTCHAR 00E1
ENCODING 225
SWIDTH 596 0
DWIDTH 29 0
BBX 24 37 3 0
BITMAP
000F80
000F00
001F00
001E00
003C00
003C00
007800
007800
008000
000000
000000
000000
03FF80
0FFFE0
1FFFF0
3F03F0
7E01F8
7C00F8
7C00F8
7C00F8
0000F8
0000F8
001FF8
03FFF8
1FFFF8
3FF8F8
7E00F8
7C00F8
F800F8
F800F8
F800F8
F801F8
FC03F8
7E07F9
7FFF7F
3FFE7F
1FF83F
ENDCHAR
STARTCHAR 00E2
ENCODING 226
SWIDTH 596 0
DWIDTH 29 0
BBX 24 37 3 0
BITMAP
007800
00FC00
01FE00
01EF00
03CF00
078780
0F03C0
1F01E0
000000
000000
000000
000000
03FF80
0FFFE0
1FFFF0
3F03F0
7E01F8
7C00F8
7C00F8
7C00F8
0000F8
0000F8
001FF8
03FFF8
1FFFF8
3FF8F8
7E00F8
7C00F8
F800F8
F800F8
F800F8
F801F8
FC03F8
7E07F9
7FFF7F
3FFE7F
1FF83F
ENDCHAR
STARTCHAR 00E3
ENCODING 227
SWIDTH 596 0
DWIDTH 29 0
BBX 24 36 3 0
BITMAP
010070
0FE070
0FF8F0
1FFFE0
1C7FE0
381FC0
380200
000000
000000
000000
000000
03FF80
0FFFE0
1FFFF0
3F03F0
7E01F8
7C00F8
7C00F8
7C00F8
0000F8
0000F8
001FF8
03FFF8
1FFFF8
3FF8F8
7E00F8
7C00F8
F800F8
F800F8
F800F8
F801F8
FC03F8
7E07F9
7FFF7F
3FFE7F
1FF83F
ENDCHAR
STARTCHAR 00E4
ENCODING 228
SWIDTH 596 0
DWIDTH 29 0
BBX 24 34 3 0
BITMAP
1F03E0
1F03E0
1F03E0
1F03E0
000000
000000
000000
000000
000000
03FF80
0FFFE0
1FFFF0
3F03F0
7E01F8
7C00F8
7C00F8
7C00F8
0000F8
0000F8
001FF8
03FFF8
1FFFF8
3FF8F8
7E00F8
7C00F8
F800F8
F800F8
F800F8
F801F8
FC03F8
7E07F9
7FFF7F
3FFE7F
1FF83F
ENDCHAR
STARTCHAR 00E5
ENCODING 229
SWIDTH 596 0
DWIDTH 29 0
BBX 24 38 3 0
BITMAP
00FC00
01FE00
03C700
038700
038300
038300
038700
01FE00
00FE00
001000
000000
000000
000000
03FF80
0FFFE0
1FFFF0
3F03F0
7E01F8
7C00F8
7C00F8
7C00F8
0000F8
0000F8
001FF8
03FFF8
1FFFF8
3FF8F8
7E00F8
7C00F8
F800F8
F800F8
F800F8
F801F8
FC03F8
7E07F9
7FFF7F
3FFE7F
1FF83F
ENDCHAR
STARTCHAR 00E6
ENCODING 230
SWIDTH 596 0
DWIDTH 29 0
BBX 27 25 1 0
BITMAP
0FE07E00
1FF9FF80
3FF9FF80
7C3FC7C0
781F83C0
701F81E0
701F01E0
700F01E0
000F00E0
000F00E0
007FFFE0
0FFFFFE0
3FFFFFE0
7F8F0000
780F0000
F00F0000
F01F00E0
F01F00E0
F01F00E0
F01F81E0
F03F81E0
F87BC3C0
7FF3FFC0
7FE1FF80
3FC0FF00
ENDCHAR
STARTCHAR 00E7
ENCODING 231
SWIDTH 596 0
DWIDTH 29 0
BBX 22 35 3 -10
BITMAP
01FF00
07FFC0
0FFFE0
1FC3F0
3F00F8
3E00F8
7C0078
7C007C
F8007C
F8003C
F80000
F80000
F80000
F80000
F80000
F8003C
F8003C
7C007C
7C007C
3E0078
3E00F8
1F83F0
0FFFE0
07FFC0
01FF80
000000
003000
003E00
000F00
000780
000380
000780
019F00
01FF00
03FC00
ENDCHAR
STARTCHAR 00E8
ENCODING 232
SWIDTH 596 0
DWIDTH 29 0
BBX 23 37 3 0
BITMAP
03E000
01E000
01F000
00F000
00F000
007800
003800
003C00
000000
000000
000000
000000
01FF00
07FFC0
0FFFF0
1F83F0
3F00F8
3E007C
7C007C
7C003C
F8003C
F8003E
FFFFFE
FFFFFE
FFFFFE
F80000
F80000
F80000
F8003E
7C003C
7C003C
7E007C
3E00FC
3F81F8
1FFFF0
0FFFE0
03FF80
ENDCHAR
STARTCHAR 00E9
ENCODING 233
SWIDTH 596 0
DWIDTH 29 0
BBX 23 37 3 0
BITMAP
0007C0
000F80
000F00
000F00
001E00
001E00
003C00
003800
004000
000000
000000
000000
01FF00
07FFC0
0FFFF0
1F83F0
3F00F8
3E007C
7C007C
7C003C
F8003C
F8003E
FFFFFE
FFFFFE
FFFFFE
F80000
F80000
F80000
F8003E
7C003C
7C003C
7E007C
3E00FC
3F81F8
1FFFF0
0FFFE0
03FF80
ENDCHAR
STARTCHAR 00EA
ENCODING 234
SWIDTH 596 0
DWIDTH 29 0
BBX 23 37 3 0
BITMAP
003C00
007E00
00FF00
01FF80
01E780
03C3C0
0781E0
0F01F0
000000
000000
000000
000000
01FF00
07FFC0
0FFFF0
1F83F0
3F00F8
3E007C
7C007C
7C003C
F8003C
F8003E
FFFFFE
FFFFFE
FFFFFE
F80000
F80000
F80000
F8003E
7C003C
7C003C
7E007C
3E00FC
3F81F8
1FFFF0
0FFFE0
03FF80
ENDCHAR
STARTCHAR 00EB
ENCODING 235
SWIDTH 596 0
DWIDTH 29 0
BBX 23 34 3 0
BITMAP
0F81F0
0F81F0
0F81F0
0F81F0
000000
000000
000000
000000
000000
01FF00
07FFC0
0FFFF0
1F83F0
3F00F8
3E007C
7C007C
7C003C
F8003C
F8003E
FFFFFE
FFFFFE
FFFFFE
F80000
F80000
F80000
F8003E
7C003C
7C003C
7E007C
3E00FC
3F81F8
1FFFF0
0FFFE0
03FF80
ENDCHAR
STARTCHAR 00EC
ENCODING 236
SWIDTH 596 0
DWIDTH 29 0
BBX 22 37 5 0
BITMAP
078000
07C000
03C000
01E000
01E000
00F000
00F000
007800
000000
000000
000000
000000
FFF800
FFF800
FFF800
FFF800
007800
007800
007800
007800
007800
007800
007800
007800
007800
007800
007800
007800
007800
007800
007800
007800
007800
FFFFFC
FFFFFC
FFFFFC
FFFFFC
ENDCHAR
STARTCHAR 00ED
ENCODING 237
SWIDTH 596 0
DWIDTH 29 0
BBX 22 37 5 0
BITMAP
000F00
001F00
001E00
003C00
003C00
007800
007800
00F000
000000
000000
000000
000000
FFF800
FFF800
FFF800
FFF800
007800
007800
007800
007800
007800
007800
007800
007800
007800
007800
007800
007800
007800
007800
007800
007800
007800
FFFFFC
FFFFFC
FFFFFC
FFFFFC
ENDCHAR
STARTCHAR 00EE
ENCODING 238
SWIDTH 596 0
DWIDTH 29 0
BBX 22 37 5 0
BITMAP
00F800
00FC00
01FC00
03DE00
078F00
078780
0F0780
1E03C0
200020
000000
000000
000000
FFF800
FFF800
FFF800
FFF800
007800
007800
007800
007800
007800
007800
007800
007800
007800
007800
007800
007800
007800
007800
007800
007800
007800
FFFFFC
FFFFFC
FFFFFC
FFFFFC
ENDCHAR
STARTCHAR 00EF
ENCODING 239
SWIDTH 596 0
DWIDTH 29 0
BBX 22 34 5 0
BITMAP
1F03C0
1F03C0
1F03C0
1F03C0
000000
000000
000000
000000
000000
FFF800
FFF800
FFF800
FFF800
007800
007800
007800
007800
007800
007800
007800
007800
007800
007800
007800
007800
007800
007800
007800
007800
007800
FFFFFC
FFFFFC
FFFFFC
FFFFFC
ENDCHAR
STARTCHAR 00F0
ENCODING 240
SWIDTH 596 0
DWIDTH 29 0
BBX 23 35 3 0
BITMAP
1F0300
0FCF80
07FE00
01F800
03FC00
0FFE00
1E3F00
081F80
000FC0
0007C0
03FFE0
07FFF0
0FFFF0
1F83F8
3F00F8
7E00FC
7C007C
7C003E
F8003E
F8003E
F8003E
F8003E
F8003E
F8003E
F8003E
F8003E
F8003E
7C003E
7C007C
7E007C
3E00F8
1F83F0
0FFFF0
07FFC0
03FF80
ENDCHAR
STARTCHAR 00F1
ENCODING 241
SWIDTH 596 0
DWIDTH 29 0
BBX 21 36 4 0
BITMAP
010070
0FE060
1FF8E0
1FFFE0
387FC0
381FC0
380200
000000
000000
000000
000000
F0FF80
F3FFC0
F7FFE0
FFDFF0
FF03F8
FE01F8
FC00F8
FC00F8
F800F8
F800F8
F800F8
F800F8
F800F8
F800F8
F800F8
F800F8
F800F8
F800F8
F800F8
F800F8
F800F8
F800F8
F800F8
F800F8
F800F8
ENDCHAR
STARTCHAR 00F2
ENCODING 242
SWIDTH 596 0
DWIDTH 29 0
BBX 23 37 3 0
BITMAP
03C000
03E000
01E000
00F000
00F000
007800
007800
003C00
000000
000000
000000
000000
01FF00
07FFC0
0FFFE0
1F83F0
3F01F8
3E00FC
7C007C
7C007C
F8003E
F8003E
F8003E
F8003E
F8003E
F8003E
F8003E
F8003E
F8003E
7C003C
7C007C
7E007C
3F00F8
1F83F0
0FFFF0
07FFC0
03FF80
ENDCHAR
STARTCHAR 00F3
ENCODING 243
SWIDTH 596 0
DWIDTH 29 0
BBX 23 37 3 0
BITMAP
000780
000F80
000F00
001E00
001E00
003C00
003C00
007800
000000
000000
000000
000000
01FF00
07FFC0
0FFFE0
1F83F0
3F01F8
3E00FC
7C007C
7C007C
F8003E
F8003E
F8003E
F8003E
F8003E
F8003E
F8003E
F8003E
F8003E
7C003C
7C007C
7E007C
3F00F8
1F83F0
0FFFF0
07FFC0
03FF80
ENDCHAR
STARTCHAR 00F4
ENCODING 244
SWIDTH 596 0
DWIDTH 29 0
BBX 23 37 3 0
BITMAP
007C00
00FE00
00FE00
01EF00
03C780
07C3C0
0783C0
0F01E0
100010
000000
000000
000000
01FF00
07FFC0
0FFFE0
1F83F0
3F01F8
3E00FC
7C007C
7C007C
F8003E
F8003E
F8003E
F8003E
F8003E
F8003E
F8003E
F8003E
F8003E
7C003C
7C007C
7E007C
3F00F8
1F83F0
0FFFF0
07FFC0
03FF80
ENDCHAR
STARTCHAR 00F5
ENCODING 245
SWIDTH 596 0
DWIDTH 29 0
BBX 23 36 3 0
BITMAP
018030
07F070
0FF870
1FFFF0
1C3FE0
1C1FC0
180300
000000
000000
000000
000000
01FF00
07FFC0
0FFFE0
1F83F0
3F01F8
3E00FC
7C007C
7C007C
F8003E
F8003E
F8003E
F8003E
F8003E
F8003E
F8003E
F8003E
F8003E
7C003C
7C007C
7E007C
3F00F8
1F83F0
0FFFF0
07FFC0
03FF80
ENDCHAR
STARTCHAR 00F6
ENCODING 246
SWIDTH 596 0
DWIDTH 29 0
BBX 23 34 3 0
BITMAP
0F01E0
0F01E0
0F01E0
0F01E0
000000
000000
000000
000000
000000
01FF00
07FFC0
0FFFE0
1F83F0
3F01F8
3E00FC
7C007C
7C007C
F8003E
F8003E
F8003E
F8003E
F8003E
F8003E
F8003E
F8003E
F8003E
7C003C
7C007C
7E007C
3F00F8
1F83F0
0FFFF0
07FFC0
03FF80
ENDCHAR
STARTCHAR 00F7
ENCODING 247
SWIDTH 596 0
DWIDTH 29 0
BBX 25 19 2 3
BITMAP
003E0000
003E0000
003E0000
003E0000
00000000
00000000
00000000
00000000
FFFFFF80
FFFFFF80
FFFFFF80
FFFFFF80
00000000
00000000
00000000
003E0000
003E0000
003E0000
003E0000
ENDCHAR
STARTCHAR 00F8
ENCODING 248
SWIDTH 596 0
DWIDTH 29 0
BBX 23 30 3 -2
BITMAP
00001E
00001C
000038
01FF70
07FFF0
0FFFE0
1F83F0
3F01F8
3E03FC
7C03FC
7C077C
F80E3E
F80E3E
F81C3E
F81C3E
F8383E
F8703E
F8703E
F8E03E
F9C03E
7DC03C
7F807C
7F807C
3F00F8
1F83F0
0FFFF0
1FFFC0
3BFF80
380000
700000
ENDCHAR
STARTCHAR 00F9
ENCODING 249
SWIDTH 596 0
DWIDTH 29 0
BBX 24 37 4 0
BITMAP
0F8000
078000
07C000
03C000
01E000
01E000
00F000
007000
000800
000000
000000
000000
F800F8
F800F8
F800F8
F800F8
F800F8
F800F8
F800F8
F800F8
F800F8
F800F8
F800F8
F800F8
F800F8
F800F8
F800F8
F800F8
F800F8
F800F8
F801F8
F801F8
FC07F8
7F9FF9
7FFFFF
3FFE7F
0FF87F
ENDCHAR
STARTCHAR 00FA
ENCODING 250
SWIDTH 596 0
DWIDTH 29 0
BBX 24 37 4 0
BITMAP
001F00
001E00
003E00
003C00
007800
007800
00F000
00F000
010000
000000
000000
000000
F800F8
F800F8
F800F8
F800F8
F800F8
F800F8
F800F8
F800F8
F800F8
F800F8
F800F8
F800F8
F800F8
F800F8
F800F8
F800F8
F800F8
F800F8
F801F8
F801F8
FC07F8
7F9FF9
7FFFFF
3FFE7F
0FF87F
ENDCHAR
STARTCHAR 00FB
ENCODING 251
SWIDTH 596 0
DWIDTH 29 0
BBX 24 37 4 0
BITMAP
00F800
01F800
03FC00
03DE00
079F00
0F0F00
1E0780
1E03C0
200000
000000
000000
000000
F800F8
F800F8
F800F8
F800F8
F800F8
F800F8
F800F8
F800F8
F800F8
F800F8
F800F8
F800F8
F800F8
F800F8
F800F8
F800F8
F800F8
F800F8
F801F8
F801F8
FC07F8
7F9FF9
7FFFFF
3FFE7F
0FF87F
ENDCHAR
STARTCHAR 00FC
ENCODING 252
SWIDTH 596 0
DWIDTH 29 0
BBX 24 34 4 0
BITMAP
3E07C0
3E07C0
3E07C0
3E07C0
000000
000000
000000
000000
000000
F800F8
F800F8
F800F8
F800F8
F800F8
F800F8
F800F8
F800F8
F800F8
F800F8
F800F8
F800F8
F800F8
F800F8
F800F8
F800F8
F800F8
F800F8
F801F8
F801F8
FC07F8
7F9FF9
7FFFFF
3FFE7F
0FF87F
ENDCHAR
STARTCHAR 00FD
ENCODING 253
SWIDTH 596 0
DWIDTH 29 0
BBX 24 46 3 -9
BITMAP
0007C0
000780
000F80
000F00
001E00
001E00
003C00
003800
004000
000000
000000
000000
F8001F
F8003E
7C003E
7C003C
7C007C
3E0078
3E00F8
1F00F8
1F00F0
1F01F0
0F81F0
0F81E0
0783E0
07C3C0
07C7C0
03E7C0
03E780
03EF80
01FF00
01FF00
00FF00
00FE00
00FE00
007C00
007C00
007C00
00F800
00F800
00F000
01F000
7FE000
7FC000
7F8000
3F0000
ENDCHAR
STARTCHAR 00FE
ENCODING 254
SWIDTH 596 0
DWIDTH 29 0
BBX 22 44 4 -9
BITMAP
F80000
F80000
F80000
F80000
F80000
F80000
F80000
F80000
F80000
F80000
F8FF00
F9FFC0
FBFFE0
FF87F0
FF01F8
FE00F8
FC007C
FC007C
FC007C
F8007C
F8007C
F8003C
F8003C
F8003C
F8007C
F8007C
F8007C
FC007C
FC007C
FE00F8
FF01F8
FF83F0
FBFFE0
F9FFC0
F8FF80
F80000
F80000
F80000
F80000
F80000
F80000
F80000
F80000
F80000
ENDCHAR
STARTCHAR 00FF
ENCODING 255
SWIDTH 596 0
DWIDTH 29 0
BBX 24 43 3 -9
BITMAP
0F81F0
0F81F0
0F81F0
0F81F0
000000
000000
000000
000000
000000
F8001F
F8003E
7C003E
7C003C
7C007C
3E0078
3E00F8
1F00F8
1F00F0
1F01F0
0F81F0
0F81E0
0783E0
07C3C0
07C7C0
03E7C0
03E780
03EF80
01FF00
01FF00
00FF00
00FE00
00FE00
007C00
007C00
007C00
00F800
00F800
00F000
01F000
7FE000
7FC000
7F8000
3F0000
ENDCHAR
STARTCHAR 0152
ENCODING 140
SWIDTH 596 0
DWIDTH 29 0
BBX 27 33 2 0
BITMAP
03FFFFC0
0FFFFFC0
1FFFFFC0
3FFFFF80
7E07C000
7C07C000
7807C000
F807C000
F807C000
F807C000
F007C000
F007C000
F007C000
F007C000
F007FF80
F007FF80
F007FF80
F007FF80
F007C000
F007C000
F007C000
F007C000
F007C000
F807C000
F807C000
F807C000
7C07C000
7C07C000
3F07C000
3FFFFFC0
1FFFFFC0
0FFFFFC0
03FFFFE0
ENDCHAR
STARTCHAR 0153
ENCODING 156
SWIDTH 596 0
DWIDTH 29 0
BBX 27 25 1 0
BITMAP
0FE07E00
3FF1FF80
3FF9FF80
7C7FC7C0
783F83C0
F01F81E0
F01F01E0
F01F01E0
F01F00E0
F00F00E0
F00FFFE0
F00FFFE0
F00FFFE0
F00F0000
F00F0000
F00F0000
F01F00E0
F01F00E0
F01F00E0
F01F81E0
783F81E0
7C7BC3C0
3FFBFFC0
3FF1FF80
0FE0FF00
ENDCHAR
STARTCHAR 0160
ENCODING 138
SWIDTH 596 0
DWIDTH 29 0
BBX 25 43 2 0
BITMAP
0F80F800
03C1F000
01E3E000
00F7C000
007F8000
003F0000
00000000
00000000
00000000
007F0000
03FFF000
0FFFF800
1FFFFC00
3FC1FE00
7E003F00
7C001F00
7C001F00
7C000F00
7C000F00
7C000000
7E000000
7F000000
3FE00000
3FFC0000
1FFFC000
07FFF000
01FFFC00
003FFE00
0003FF00
00007F80
00003F80
00001F80
00000F80
F8000F80
F8000F80
F8000F80
F8000F80
7C001F80
7F007F00
3FFFFE00
1FFFFE00
0FFFF800
03FFE000
ENDCHAR
STARTCHAR 0161
ENCODING 154
SWIDTH 596 0
DWIDTH 29 0
BBX 21 37 4 0
BITMAP
3E03E0
1E03C0
0F0780
078F00
079F00
03DE00
01FC00
00F800
000000
000000
000000
000000
07FF00
1FFFC0
3FFFE0
7E03F0
7C01F0
F800F8
F800F8
F80000
FC0000
7F8000
7FF800
3FFF80
0FFFE0
01FFF0
001FF8
0001F8
0000F8
F00078
F00078
F00078
F800F8
7E03F8
7FFFF0
1FFFE0
07FF80
ENDCHAR
STARTCHAR 0178
ENCODING 159
SWIDTH 596 0
DWIDTH 29 0
BBX 27 42 1 0
BITMAP
03E07800
03E07800
03E07800
03E07800
00000000
00000000
00000000
00000000
00000000
FC0003E0
7C0007C0
7E0007C0
3F000F80
3F000F80
1F801F00
0F801F00
0FC03E00
07C07E00
07E07C00
03E0FC00
03F0F800
01F1F000
01F9F000
00FBE000
00FFE000
007FC000
007FC000
003F8000
003F8000
001F0000
001F0000
001F0000
001F0000
001F0000
001F0000
001F0000
001F0000
001F0000
001F0000
001F0000
001F0000
001F0000
ENDCHAR
STARTCHAR 017D
ENCODING 142
SWIDTH 596 0
DWIDTH 29 0
BBX 25 43 2 0
BITMAP
0F80F800
03C1F000
01E3E000
00F7C000
007F8000
003F0000
00000000
00000000
00000000
00000000
7FFFFF80
7FFFFF80
7FFFFF00
7FFFFF00
00007E00
0000FC00
0000FC00
0001F800
0001F000
0003F000
0007E000
0007C000
000FC000
001F8000
001F0000
003F0000
007E0000
007E0000
00FC0000
01F80000
01F80000
03F00000
07E00000
07E00000
0FC00000
1F800000
1F800000
3F000000
3E000000
7FFFFF80
FFFFFF80
FFFFFF80
FFFFFF80
ENDCHAR
STARTCHAR 017E
ENCODING 158
SWIDTH 596 0
DWIDTH 29 0
BBX 19 37 5 0
BITMAP
7C07C0
3C0780
1E0F00
0F1E00
0F3E00
07BC00
03F800
01F000
000000
000000
000000
000000
7FFFE0
7FFFE0
7FFFC0
7FFFC0
000F80
001F00
003F00
003E00
007E00
007C00
00F800
01F800
01F000
03F000
07E000
07C000
0FC000
0F8000
1F0000
3F0000
3E0000
7FFFE0
7FFFE0
FFFFE0
FFFFE0
ENDCHAR
STARTCHAR 0192
ENCODING 131
SWIDTH 596 0
DWIDTH 29 0
BBX 23 44 2 -9
BITMAP
0001FE
0007FC
000FFC
000F84
001F00
001F00
001F00
001F00
001F00
001F00
00FFF8
00FFF8
01FFF8
01FFF8
003E00
003E00
003E00
003C00
007C00
007C00
007C00
007C00
007C00
007C00
007800
00F800
00F800
00F800
00F800
00F800
00F800
00F000
01F000
01F000
01F000
01F000
01F000
01F000
03E000
03E000
7FE000
FFC000
FF8000
7E0000
ENDCHAR
STARTCHAR 02C6
ENCODING 136
SWIDTH 596 0
DWIDTH 29 0
BBX 17 8 6 29
BITMAP
03E000
07F000
07F000
0F7800
1E3C00
3E1E00
3C1E00
F80F80
ENDCHAR
STARTCHAR 02DC
ENCODING 152
SWIDTH 596 0
DWIDTH 29 0
BBX 17 7 6 29
BITMAP
0C0180
3F8380
7FC380
FFFF80
E1FF00
E0FE00
C01800
ENDCHAR
STARTCHAR 2013
ENCODING 150
SWIDTH 596 0
DWIDTH 29 0
BBX 19 4 5 11
BITMAP
FFFFE0
FFFFE0
FFFFE0
FFFFE0
ENDCHAR
STARTCHAR 2014
ENCODING 151
SWIDTH 596 0
DWIDTH 29 0
BBX 29 4 0 11
BITMAP
FFFFFFF8
FFFFFFF8
FFFFFFF8
FFFFFFF8
ENDCHAR
STARTCHAR 2018
ENCODING 145
SWIDTH 596 0
DWIDTH 29 0
BBX 6 13 12 20
BITMAP
3C
78
70
F0
E0
E0
E0
F8
F8
F8
F8
F8
F8
ENDCHAR
STARTCHAR 2019
ENCODING 146
SWIDTH 596 0
DWIDTH 29 0
BBX 5 14 12 20
BITMAP
F8
F8
F8
F8
F8
F8
F8
38
38
38
38
70
F0
E0
ENDCHAR
STARTCHAR 201A
ENCODING 130
SWIDTH 596 0
DWIDTH 29 0
BBX 5 14 12 -7
BITMAP
F8
F8
F8
F8
F8
F8
F8
38
38
38
38
70
F0
E0
ENDCHAR
STARTCHAR 201C
ENCODING 147
SWIDTH 596 0
DWIDTH 29 0
BBX 15 13 7 20
BITMAP
3C0E
381C
701C
7038
F038
E038
E038
FC7E
FC7E
FC7E
FC7E
FC7E
FC7E
ENDCHAR
STARTCHAR 201D
ENCODING 148
SWIDTH 596 0
DWIDTH 29 0
BBX 15 14 7 20
BITMAP
FC3E
FC3E
FC3E
FC3E
FC3E
FC3E
FC3E
1C0E
380E
380E
381C
701C
7038
E078
ENDCHAR
STARTCHAR 201E
ENCODING 132
SWIDTH 596 0
DWIDTH 29 0
BBX 15 14 7 -7
BITMAP
FC3E
FC3E
FC3E
FC3E
FC3E
FC3E
FC3E
1C0E
380E
380E
381C
701C
7038
E078
ENDCHAR
STARTCHAR 2020
ENCODING 134
SWIDTH 596 0
DWIDTH 29 0
BBX 23 41 3 -8
BITMAP
007C00
003C00
003C00
003800
003800
003800
003800
003800
F0381E
FFFFFE
FFFFFE
FFFFFE
803802
003800
003800
003800
003800
003800
003800
003800
003800
003800
003800
003800
003800
003800
003800
003800
003800
003800
003C00
003C00
003C00
003C00
003C00
003C00
003C00
007C00
007C00
007C00
007C00
ENDCHAR
STARTCHAR 2021
ENCODING 135
SWIDTH 596 0
DWIDTH 29 0
BBX 23 42 3 -9
BITMAP
007C00
003C00
003C00
003800
003800
003800
003800
003800
F0381E
FFFFFE
FFFFFE
FFFFFE
803802
003800
003800
003800
003800
003C00
003C00
007C00
007C00
007C00
003C00
003C00
003800
003800
003800
003800
003800
FFFFFE
FFFFFE
FFFFFE
FC387E
003800
003800
003800
003800
003800
003C00
003C00
007C00
007C00
ENDCHAR
STARTCHAR 2022
ENCODING 149
SWIDTH 596 0
DWIDTH 29 0
BBX 15 15 7 9
BITMAP
07C0
1FF0
3FF8
7FFC
7FFC
FFFE
FFFE
FFFE
FFFE
7FFE
7FFC
3FFC
3FF8
0FE0
0180
ENDCHAR
STARTCHAR 2026
ENCODING 133
SWIDTH 596 0
DWIDTH 29 0
BBX 25 6 2 0
BITMAP
FC3E1F80
FC3E1F80
FC3E1F80
FC3E1F80
FC3E1F80
FC3E1F80
ENDCHAR
STARTCHAR 2030
ENCODING 137
SWIDTH 596 0
DWIDTH 29 0
BBX 27 33 1 0
BITMAP
0FC00000
3FE00000
3CF00000
78780000
70380000
70380000
70380000
70380000
70380000
70380000
78780000
3FF00000
3FE00000
0FC00000
00000000
FFFFFFE0
FFFFFFE0
FFFFFFE0
02001800
1FE07F00
3FF1FF80
38F1E3C0
707BC1C0
703B81C0
703B81C0
703B81C0
703B81C0
703B81C0
703B81C0
7879C3C0
3FF1FF80
1FE0FF00
0FC07E00
ENDCHAR
STARTCHAR 2039
ENCODING 139
SWIDTH 596 0
DWIDTH 29 0
BBX 9 17 10 8
BITMAP
0380
0780
0F00
1F00
1E00
3C00
7C00
7800
F800
7800
7C00
3C00
1E00
1E00
0F00
0780
0780
ENDCHAR
STARTCHAR 203A
ENCODING 155
SWIDTH 596 0
DWIDTH 29 0
BBX 9 17 10 8
BITMAP
F000
7000
7800
3C00
3C00
1E00
1F00
0F80
0F80
0F80
1F00
1E00
3E00
3C00
7800
7000
F000
ENDCHAR
STARTCHAR 20AC
ENCODING 128
SWIDTH 596 0
DWIDTH 29 0
BBX 25 34 1 0
BITMAP
00007F00
0003FF80
000FFF80
001FFF80
007FF180
007F0000
00FC0000
01F80000
01F00000
03F00000
03E00000
07E00000
07C00000
FFFFF000
FFFFF000
FFFFF000
07C00000
07C00000
07C00000
FFFFF000
FFFFF000
FFFFF000
07C00000
03E00000
03E00000
03F00000
01F80000
01FC0000
00FE0000
007F8000
003FFF80
001FFF80
0007FF80
0001FF80
ENDCHAR
STARTCHAR 2122
ENCODING 153
SWIDTH 596 0
DWIDTH 29 0
BBX 29 19 0 14
BITMAP
FFEF80F8
FFEF80F8
0E0F81F8
0E0FC1F8
0E0FC1B8
0E0FC1B8
0E0EC3B8
0E0EE3B8
0E0EE338
0E0EE338
0E0E6338
0E0E6738
0E0E7638
0E0E7638
0E0E7638
0E0E3E38
0E0E3C38
0E0E3C38
0E0E3C38
ENDCHAR
ENDFONT
